<svg width="100" height="100" viewBox="0 0 100 100" fill="none" xmlns="http://www.w3.org/2000/svg">
<rect width="100" height="100" rx="20" fill="#38393D"/>
<path d="M24.0507 28.457L12.1072 48.681C11.7401 49.3026 11.7362 50.0737 12.0968 50.6988L14.9035 55.5636C15.6731 56.8976 17.5978 56.8968 18.3672 55.5623L28.735 37.5784C29.0887 36.9649 29.7401 36.5841 30.4478 36.5771L52.0185 36.3634C53.5314 36.3484 54.4807 34.7226 53.7505 33.3969L51.0576 28.5082C50.706 27.87 50.0354 27.4737 49.307 27.4737L25.7727 27.4737C25.0654 27.4737 24.4106 27.8476 24.0507 28.457Z" fill="#FFFEED"/>
<path d="M30.1462 17.6021L27.3553 22.4014C26.5797 23.7351 27.5408 25.4076 29.0828 25.4076L50.4427 25.4076C51.1505 25.4076 51.8053 25.7819 52.1647 26.3919L62.8355 44.5038C63.6262 45.8457 65.579 45.8079 66.318 44.4364L68.6918 40.0308C69.0164 39.4282 69.0107 38.7015 68.6766 38.1044L57.3181 17.8004C56.9671 17.1731 56.3067 16.7826 55.5882 16.7774L31.8893 16.6073C31.1721 16.6021 30.507 16.9817 30.1462 17.6021Z" fill="#FFFEED"/>
<path d="M68.0791 16.8975L62.7474 16.8299C61.2049 16.8103 60.2218 18.4718 60.9808 19.8152L71.3097 38.0956C71.6497 38.6974 71.6551 39.4322 71.3238 40.0391L61.3722 58.2697C60.6445 59.6028 61.6084 61.2287 63.1263 61.2287H68.3589C69.0737 61.2287 69.7342 60.8469 70.0914 60.2273L81.568 40.3203C81.9248 39.7014 81.9248 38.9392 81.5679 38.3206L69.7849 17.8973C69.4324 17.2864 68.7843 16.9064 68.0791 16.8975Z" fill="#FFFEED"/>
<path d="M87.903 49.3012L85.0963 44.4364C84.3267 43.1024 82.402 43.1032 81.6326 44.4377L71.2653 62.4207C70.9113 63.0347 70.2593 63.4155 69.551 63.422L48.2466 63.617C46.7379 63.6308 45.7869 65.2477 46.5077 66.5737L49.1756 71.4819C49.5255 72.1256 50.1992 72.5263 50.9316 72.5263L74.2271 72.5263C74.9344 72.5263 75.5892 72.1524 75.949 71.543L87.8926 51.319C88.2596 50.6974 88.2636 49.9263 87.903 49.3012Z" fill="#FFFEED"/>
<path d="M49.594 74.6008L70.9364 74.7541C72.4836 74.7652 73.4319 76.4548 72.6363 77.7828L69.8577 82.4205C69.4936 83.0281 68.8357 83.3979 68.1278 83.3928L44.37 83.2223C43.6738 83.2173 43.0305 82.8503 42.6716 82.2536L30.6186 62.2131C30.2367 61.5781 30.2371 60.7837 30.6196 60.1488L34.0496 54.4561C34.8475 53.1318 36.7809 53.1746 37.5187 54.5329L47.8521 73.5561C48.1994 74.1955 48.8665 74.5956 49.594 74.6008Z" fill="#FFFEED"/>
<path d="M28.3095 62.2011L38.8007 80.3854C39.561 81.7033 38.6302 83.3548 37.1093 83.386L32.2088 83.4866C31.48 83.5016 30.801 83.1186 30.4366 82.487L18.4319 61.6794C18.075 61.0608 18.075 60.2986 18.4318 59.6797L29.9481 39.7038C30.3053 39.0842 30.9658 38.7024 31.6806 38.7024H37.6856C39.2401 38.7024 40.1995 40.3995 39.3988 41.7328L28.3274 60.1707C27.9531 60.7941 27.9462 61.5715 28.3095 62.2011Z" fill="#FFFEED"/>
<path d="M56.3416 47.559C56.3416 48.0982 55.9048 48.5354 55.3659 48.5354C54.827 48.5354 54.3902 48.0982 54.3902 47.559C54.3902 47.0197 54.827 46.5826 55.3659 46.5826C55.9048 46.5826 56.3416 47.0197 56.3416 47.559Z" fill="#FFFEED"/>
<path d="M56.3416 50.4882C56.3416 51.0274 55.9048 51.4646 55.3659 51.4646C54.827 51.4646 54.3902 51.0274 54.3902 50.4882C54.3902 49.9489 54.827 49.5118 55.3659 49.5118C55.9048 49.5118 56.3416 49.9489 56.3416 50.4882Z" fill="#FFFEED"/>
<path d="M56.3416 53.4174C56.3416 53.9567 55.9048 54.3938 55.3659 54.3938C54.827 54.3938 54.3902 53.9567 54.3902 53.4174C54.3902 52.8782 54.827 52.441 55.3659 52.441C55.9048 52.441 56.3416 52.8782 56.3416 53.4174Z" fill="#FFFEED"/>
<path d="M55.8624 41.5167L54.3957 40.6233C53.0629 39.8115 51.3553 40.7708 51.3553 42.3314V54.7469C51.3553 55.8066 50.6151 56.7223 49.579 56.9445C48.7597 57.1202 47.9061 57.0372 47.1361 56.7069L46.8019 56.5636L47.7585 56.1382C48.37 55.8662 48.7795 55.2769 48.8212 54.609L48.8308 54.4556C48.9063 53.2463 47.9427 52.224 46.7311 52.224C45.5744 52.224 44.6337 53.1617 44.6337 54.3184V54.608C44.6337 56.8505 46.5141 58.6344 48.7534 58.5164C50.9927 58.6344 52.873 56.8505 52.873 54.608V45.2553C52.873 44.4903 53.697 44.0086 54.3636 44.3838L54.8517 44.6586C55.5183 45.0339 56.3422 44.5522 56.3422 43.7872V42.3708C56.3422 42.0219 56.1604 41.6982 55.8624 41.5167Z" fill="#FFFEED"/>
<path d="M24.0507 28.457L12.1072 48.681C11.7401 49.3026 11.7362 50.0737 12.0968 50.6988L14.9035 55.5636C15.6731 56.8976 17.5978 56.8968 18.3672 55.5623L28.735 37.5784C29.0887 36.9649 29.7401 36.5841 30.4478 36.5771L52.0185 36.3634C53.5314 36.3484 54.4807 34.7226 53.7505 33.3969L51.0576 28.5082C50.706 27.87 50.0354 27.4737 49.307 27.4737L25.7727 27.4737C25.0654 27.4737 24.4106 27.8476 24.0507 28.457Z" stroke="#FFFEED"/>
<path d="M30.1462 17.6021L27.3553 22.4014C26.5797 23.7351 27.5408 25.4076 29.0828 25.4076L50.4427 25.4076C51.1505 25.4076 51.8053 25.7819 52.1647 26.3919L62.8355 44.5038C63.6262 45.8457 65.579 45.8079 66.318 44.4364L68.6918 40.0308C69.0164 39.4282 69.0107 38.7015 68.6766 38.1044L57.3181 17.8004C56.9671 17.1731 56.3067 16.7826 55.5882 16.7774L31.8893 16.6073C31.1721 16.6021 30.507 16.9817 30.1462 17.6021Z" stroke="#FFFEED"/>
<path d="M68.0791 16.8975L62.7474 16.8299C61.2049 16.8103 60.2218 18.4718 60.9808 19.8152L71.3097 38.0956C71.6497 38.6974 71.6551 39.4322 71.3238 40.0391L61.3722 58.2697C60.6445 59.6028 61.6084 61.2287 63.1263 61.2287H68.3589C69.0737 61.2287 69.7342 60.8469 70.0914 60.2273L81.568 40.3203C81.9248 39.7014 81.9248 38.9392 81.5679 38.3206L69.7849 17.8973C69.4324 17.2864 68.7843 16.9064 68.0791 16.8975Z" stroke="#FFFEED"/>
<path d="M87.903 49.3012L85.0963 44.4364C84.3267 43.1024 82.402 43.1032 81.6326 44.4377L71.2653 62.4207C70.9113 63.0347 70.2593 63.4155 69.551 63.422L48.2466 63.617C46.7379 63.6308 45.7869 65.2477 46.5077 66.5737L49.1756 71.4819C49.5255 72.1256 50.1992 72.5263 50.9316 72.5263L74.2271 72.5263C74.9344 72.5263 75.5892 72.1524 75.949 71.543L87.8926 51.319C88.2596 50.6974 88.2636 49.9263 87.903 49.3012Z" stroke="#FFFEED"/>
<path d="M49.594 74.6008L70.9364 74.7541C72.4836 74.7652 73.4319 76.4548 72.6363 77.7828L69.8577 82.4205C69.4936 83.0281 68.8357 83.3979 68.1278 83.3928L44.37 83.2223C43.6738 83.2173 43.0305 82.8503 42.6716 82.2536L30.6186 62.2131C30.2367 61.5781 30.2371 60.7837 30.6196 60.1488L34.0496 54.4561C34.8475 53.1318 36.7809 53.1746 37.5187 54.5329L47.8521 73.5561C48.1994 74.1955 48.8665 74.5956 49.594 74.6008Z" stroke="#FFFEED"/>
<path d="M28.3095 62.2011L38.8007 80.3854C39.561 81.7033 38.6302 83.3548 37.1093 83.386L32.2088 83.4866C31.48 83.5016 30.801 83.1186 30.4366 82.487L18.4319 61.6794C18.075 61.0608 18.075 60.2986 18.4318 59.6797L29.9481 39.7038C30.3053 39.0842 30.9658 38.7024 31.6806 38.7024H37.6856C39.2401 38.7024 40.1995 40.3995 39.3988 41.7328L28.3274 60.1707C27.9531 60.7941 27.9462 61.5715 28.3095 62.2011Z" stroke="#FFFEED"/>
<path d="M56.3416 47.559C56.3416 48.0982 55.9048 48.5354 55.3659 48.5354C54.827 48.5354 54.3902 48.0982 54.3902 47.559C54.3902 47.0197 54.827 46.5826 55.3659 46.5826C55.9048 46.5826 56.3416 47.0197 56.3416 47.559Z" stroke="#FFFEED"/>
<path d="M56.3416 50.4882C56.3416 51.0274 55.9048 51.4646 55.3659 51.4646C54.827 51.4646 54.3902 51.0274 54.3902 50.4882C54.3902 49.9489 54.827 49.5118 55.3659 49.5118C55.9048 49.5118 56.3416 49.9489 56.3416 50.4882Z" stroke="#FFFEED"/>
<path d="M56.3416 53.4174C56.3416 53.9567 55.9048 54.3938 55.3659 54.3938C54.827 54.3938 54.3902 53.9567 54.3902 53.4174C54.3902 52.8782 54.827 52.441 55.3659 52.441C55.9048 52.441 56.3416 52.8782 56.3416 53.4174Z" stroke="#FFFEED"/>
<path d="M55.8624 41.5167L54.3957 40.6233C53.0629 39.8115 51.3553 40.7708 51.3553 42.3314V54.7469C51.3553 55.8066 50.6151 56.7223 49.579 56.9445C48.7597 57.1202 47.9061 57.0372 47.1361 56.7069L46.8019 56.5636L47.7585 56.1382C48.37 55.8662 48.7795 55.2769 48.8212 54.609L48.8308 54.4556C48.9063 53.2463 47.9427 52.224 46.7311 52.224C45.5744 52.224 44.6337 53.1617 44.6337 54.3184V54.608C44.6337 56.8505 46.5141 58.6344 48.7534 58.5164C50.9927 58.6344 52.873 56.8505 52.873 54.608V45.2553C52.873 44.4903 53.697 44.0086 54.3636 44.3838L54.8517 44.6586C55.5183 45.0339 56.3422 44.5522 56.3422 43.7872V42.3708C56.3422 42.0219 56.1604 41.6982 55.8624 41.5167Z" stroke="#FFFEED"/>
</svg>
