<svg width="58" height="60" viewBox="0 0 58 60" fill="none" xmlns="http://www.w3.org/2000/svg">
<path d="M2.94459 59.8089C5.40118 59.861 7.36993 59.861 9.30384 59.861C11.5862 59.861 13.9383 59.861 17.1614 59.9479L17.8758 59.9653C19.1825 60 20.5414 60 22.0223 60C25.0887 60 28.1899 59.9305 31.1866 59.8784C34.2704 59.8089 37.4413 59.7568 40.6471 59.7568H40.8213V59.9479C44.0445 59.861 46.3965 59.861 48.6789 59.861C50.7348 59.861 52.8603 59.861 55.5608 59.7915C56.9024 59.7568 58 58.6451 58 57.3075L57.9129 34.7423L54.5155 31.4765L54.3413 31.3202C52.8952 30.1563 51.7627 29.8089 50.4386 29.392L50.0205 29.253C49.3758 29.0446 48.7138 29.0272 48.1388 29.0098C46.414 28.9577 45.5428 28.9056 44.6891 28.8709C43.9225 28.8361 43.1211 28.784 41.6924 28.7493C41.6576 23.8506 41.5356 21.0712 41.344 20.2722C39.8282 14.0185 34.5318 6.16676 30.3503 0.677476L29.8451 0L29.2876 0.642734C25.7159 4.74233 22.3534 9.10249 19.287 13.6016C18.2068 15.1824 17.1963 16.7284 16.6213 18.535C16.0812 20.2374 15.9593 25.1708 15.9767 28.7666C14.7745 28.8014 14.0254 28.8535 13.311 28.8882C12.4573 28.9404 11.5688 28.9751 9.86136 29.0272C9.28642 29.0446 8.62436 29.062 7.97972 29.2704C6.42911 29.7568 5.69736 30.139 3.74603 31.2681L0.087283 34.7423L0.000169983 56.7863C-0.0172526 58.4192 1.30687 59.7742 2.94459 59.8089ZM55.526 58.4366C52.8429 58.5061 50.7348 58.5061 48.6789 58.5061C46.5185 58.5061 44.2884 58.5061 41.3266 58.5929C41.3091 53.4858 41.4137 49.282 41.5182 45.2345C41.6053 41.9687 41.675 38.5987 41.7099 34.725L45.7171 34.9855L45.7345 35.0029L45.7519 34.9855L53.7837 35.5067C54.4458 35.5414 55.1427 35.5935 55.8396 35.5935C56.0835 35.5935 56.31 35.5761 56.5539 35.5588L56.641 57.3248C56.6236 57.9155 56.1358 58.4192 55.526 58.4366ZM41.7099 31.3028V30.9554C41.7099 30.6775 41.7099 30.4169 41.7099 30.139C42.6681 31.4244 43.5567 32.4841 44.4278 33.509L41.7099 33.3353C41.7099 32.6752 41.7099 31.9977 41.7099 31.3028ZM50.0379 30.7122C51.3271 31.1118 52.2505 31.4071 53.4527 32.3625L55.3866 34.2038C54.8814 34.1865 54.3935 34.1517 53.8883 34.1343L52.1112 34.0127C50.7696 32.8836 49.4804 31.685 48.2782 30.3995C48.7486 30.4169 49.2016 30.4343 49.6197 30.5732L50.0379 30.7122ZM46.3269 30.3474L47.1631 31.2334C48.0168 32.154 48.9228 33.0226 49.8462 33.8738L46.3443 33.6479C45.2118 32.3798 44.3233 31.3376 43.4347 30.1911C43.8528 30.2085 44.2187 30.2258 44.5846 30.2432C45.1073 30.2779 45.63 30.3127 46.3269 30.3474ZM2.97943 58.454C2.09088 58.4366 1.35913 57.6896 1.35913 56.8037L1.42882 36.0799L16.0812 35.0898C16.1858 38.6856 16.2032 42.3509 16.238 45.912C16.2729 50.0811 16.3077 54.3717 16.4471 58.5756C13.5724 58.5061 11.3945 58.5061 9.28641 58.5061C7.38735 58.5061 5.4186 58.5061 2.97943 58.454ZM16.0115 32.5709C16.029 32.9531 16.029 33.3353 16.0464 33.7348L13.1368 33.9259C14.0602 32.8662 14.9662 31.7892 15.9593 30.4864C15.9767 31.4592 15.9941 32.2061 16.0115 32.5709ZM27.3711 52.2003C27.3362 51.6271 27.3188 51.0191 27.5976 50.7759C27.7021 50.6891 27.8763 50.6369 28.0506 50.5848C28.6603 50.3937 29.2876 50.3069 29.9322 50.2895C30.3852 50.2721 30.5594 50.359 30.6291 50.4285C30.7511 50.5501 30.7685 50.9149 30.7685 51.106L30.8033 52.0961C30.8904 54.1459 30.9601 55.8135 30.8207 58.5408C29.6534 58.5582 28.4687 58.5929 27.284 58.6103C27.493 56.491 27.5105 54.337 27.3711 52.2003ZM17.9106 18.9693C18.4333 17.3364 19.3915 15.8772 20.402 14.3833C23.2768 10.1621 26.4303 6.06254 29.758 2.18877C33.7652 7.52171 38.6087 14.835 40.0025 20.6022C40.1418 21.1407 40.2986 23.3816 40.3161 30.9554V31.3028C40.3509 36.6532 40.2289 40.9786 40.1244 45.1824C40.0199 49.1951 39.9153 53.3468 39.9328 58.4019C37.302 58.4019 34.706 58.454 32.1623 58.5061C32.3017 55.7441 32.232 54.007 32.1449 52.0266L32.11 51.0365C32.0926 50.6717 32.0752 49.9768 31.6048 49.4731C31.0995 48.9346 30.3852 48.8825 29.8799 48.8998C29.1133 48.9172 28.3642 49.0388 27.6324 49.2472C27.3362 49.3341 26.9878 49.4557 26.709 49.6989C25.8553 50.4111 25.9424 51.6271 25.9947 52.2698C26.1515 54.3717 26.1166 56.491 25.9076 58.5929C24.6009 58.6103 23.3116 58.6277 22.0223 58.6277C20.5414 58.6277 19.1825 58.6103 17.8583 58.5929L17.4925 28.7319H17.3357C17.3182 25.0492 17.4576 20.3937 17.9106 18.9693ZM13.3807 30.2606C13.7292 30.2432 14.0602 30.2258 14.4609 30.2085C13.4853 31.4592 12.527 32.6057 11.2029 34.0649L7.84034 34.2907C8.6592 33.4916 9.47806 32.623 10.2272 31.824L11.6036 30.3474C12.3179 30.3127 12.858 30.2779 13.3807 30.2606ZM4.47778 32.4146C6.28973 31.355 6.95179 31.0249 8.36302 30.5732C8.74632 30.4517 9.1993 30.4169 9.65229 30.3995L9.1993 30.8686C8.22364 31.9108 7.12601 33.0747 6.08066 34.0301L6.06323 34.0127C5.9587 34.0822 5.85416 34.1865 5.67994 34.3602C5.66251 34.3775 5.64509 34.3949 5.62767 34.4123L2.12573 34.6555L4.47778 32.4146Z" fill="#284135"/>
<path d="M28.3444 16.9888C28.3967 19.8203 28.3967 22.7908 28.327 25.3444L29.7034 25.3791C29.7731 22.8082 29.7731 19.8203 29.7208 16.9541C30.8881 16.9194 32.0032 16.8672 32.9614 16.7978L32.8743 15.4254C31.9335 15.4949 30.8533 15.547 29.7034 15.5818C29.6685 14.2268 29.6163 12.9066 29.564 11.708L28.1876 11.7775C28.2399 12.9587 28.2922 14.2789 28.327 15.6165C27.2468 15.6339 26.1666 15.6513 25.1561 15.6339L25.1387 17.0062C25.4174 17.0062 25.6788 17.0062 25.9575 17.0062C26.7241 17.0062 27.543 17.0062 28.3444 16.9888Z" fill="#284135"/>
<path d="M30.2091 35.0375C29.9304 34.9159 29.5819 34.7596 29.2161 34.6901C28.5366 34.5511 27.8222 34.638 27.2299 34.9507C26.411 35.385 25.8186 36.2709 25.6793 37.2437C25.5747 38.0949 25.8012 39.0155 26.3065 39.8146C26.5156 40.1447 26.7595 40.4052 27.0034 40.5789C27.5958 41.0132 28.3275 41.0827 29.007 41.1001H29.1986C29.7213 41.1001 30.3659 41.048 30.9235 40.6484C31.6204 40.1273 31.8294 39.2587 31.9166 38.6681C32.1256 37.3132 31.8643 36.3056 31.1674 35.6455C30.8886 35.3502 30.5227 35.1765 30.2091 35.0375ZM30.575 38.4597C30.4879 39.0329 30.3485 39.3803 30.122 39.554C29.8955 39.7278 29.5122 39.7451 29.2161 39.7451H29.0592C28.5888 39.7278 28.1359 39.693 27.8397 39.4846C27.7177 39.3977 27.5958 39.2587 27.4738 39.0677C27.1428 38.5465 26.986 37.9385 27.0556 37.4174C27.1253 36.8789 27.4564 36.3751 27.8745 36.1493C28.0836 36.0451 28.3275 35.9756 28.5714 35.9756C28.6934 35.9756 28.8153 35.993 28.9199 36.0103C29.1638 36.0624 29.4077 36.1667 29.6342 36.2709C29.8433 36.3577 30.0872 36.4793 30.244 36.6183C30.6796 37.0526 30.6621 37.8517 30.575 38.4597Z" fill="#284135"/>
<path d="M35.9431 47.2497C36.0128 47.2497 36.0825 47.2497 36.1522 47.2497C36.309 47.2497 36.4309 47.2324 36.5703 47.1976C36.8317 47.1281 37.093 46.9718 37.3195 46.746C37.7725 46.2769 38.0338 45.6342 38.0164 44.9915C37.999 44.3487 37.7202 43.7234 37.2672 43.2717C37.093 43.1154 36.9188 42.9764 36.7271 42.8896C36.1173 42.5943 35.3333 42.6985 34.7584 43.1154C34.3054 43.4454 33.9744 43.984 33.8175 44.6093C33.6433 45.3389 33.7653 46.0337 34.166 46.5028C34.6538 47.1108 35.4204 47.215 35.9431 47.2497ZM35.1417 44.9567C35.2114 44.6441 35.3682 44.3835 35.5772 44.2271C35.6818 44.1403 35.8211 44.1055 35.9605 44.1055C36.0302 44.1055 36.0825 44.1229 36.1348 44.1403C36.187 44.1577 36.2393 44.2098 36.309 44.2619C36.518 44.4703 36.64 44.7483 36.6574 45.0436C36.6574 45.3215 36.5529 45.6168 36.3612 45.8079C36.2916 45.8774 36.2393 45.8948 36.2393 45.8948C36.2393 45.8948 36.1522 45.8948 36.0651 45.8948C35.6295 45.86 35.3507 45.7906 35.2288 45.6516C35.0894 45.5126 35.072 45.2347 35.1417 44.9567Z" fill="#284135"/>
<path d="M21.9197 47.2497C21.9894 47.2497 22.059 47.2497 22.1287 47.2497C22.2855 47.2497 22.4075 47.2324 22.5469 47.1976C22.8082 47.1281 23.0696 46.9718 23.2961 46.746C23.749 46.2769 24.0104 45.6342 23.993 44.9915C23.9755 44.3487 23.6968 43.7234 23.2438 43.2717C23.0696 43.1154 22.8953 42.9764 22.7037 42.8896C22.0939 42.5943 21.3099 42.6985 20.7349 43.1154C20.2819 43.4454 19.9509 43.984 19.7941 44.6093C19.6199 45.3389 19.7418 46.0337 20.1426 46.5028C20.6304 47.1108 21.397 47.215 21.9197 47.2497ZM21.1182 44.9567C21.1879 44.6441 21.3447 44.3835 21.5538 44.2271C21.6583 44.1403 21.7977 44.1055 21.9371 44.1055C22.0068 44.1055 22.059 44.1229 22.1113 44.1403C22.1636 44.1577 22.2159 44.2098 22.2855 44.2619C22.4946 44.4703 22.6166 44.7483 22.634 45.0436C22.634 45.3215 22.5295 45.6168 22.3378 45.8079C22.2681 45.8774 22.2159 45.8948 22.2159 45.8948C22.2159 45.8948 22.1287 45.8948 22.0416 45.8948C21.6061 45.86 21.3273 45.7906 21.2053 45.6516C21.066 45.5126 21.0485 45.2347 21.1182 44.9567Z" fill="#284135"/>
<path d="M12.2319 42.2812L5.78558 42.4723L5.71588 43.063C5.50681 44.9043 5.54166 46.7804 5.803 48.6217L5.87269 49.0734L6.30825 49.195C6.84835 49.3339 7.4233 49.4034 7.98082 49.4034C8.38154 49.4034 8.78226 49.3687 9.18298 49.2992C9.35721 49.2645 9.53143 49.2297 9.70566 49.195C10.2458 49.0734 10.751 48.9692 11.1169 49.0907L11.9009 49.3339L11.988 48.5175C12.1971 46.6935 12.2842 44.8174 12.2319 42.9761V42.2812ZM10.7162 47.6489C10.2632 47.6489 9.82762 47.7532 9.39205 47.84C9.23525 47.8748 9.07845 47.9095 8.92164 47.9443C8.32928 48.0485 7.70206 48.0658 7.09227 47.9616C6.93547 46.5719 6.90062 45.1822 7.02258 43.7925L10.8904 43.6709C10.9078 45.0085 10.8381 46.3287 10.7162 47.6489Z" fill="#284135"/>
<path d="M52.3019 42.8199L52.2496 42.264L51.7095 42.1945C50.5945 42.0555 49.7234 42.0034 48.8348 42.0034C48.1205 42.0034 47.3887 42.0382 46.2737 42.125L45.6465 42.1771V42.8025C45.6465 44.5396 45.6988 46.3115 45.7859 48.066C45.7859 48.2223 45.8207 48.5871 46.1169 48.8477C46.3434 49.0561 46.6221 49.1082 46.7615 49.1256C47.7546 49.2646 48.5386 49.3167 49.3227 49.3167C50.2112 49.3167 51.0649 49.2472 52.0754 49.1256L52.7026 49.0561L52.6852 48.4307C52.6155 46.572 52.4936 44.6786 52.3019 42.8199ZM47.1448 47.8054C47.0751 46.3636 47.0229 44.9044 47.0054 43.4452C47.7372 43.3931 48.2947 43.3757 48.8348 43.3757C49.5143 43.3757 50.1938 43.4105 50.9952 43.4973C51.1346 44.9391 51.2217 46.3983 51.274 47.8401C49.8628 47.9965 48.8174 48.0138 47.1448 47.8054Z" fill="#284135"/>
</svg>
