<svg width="30" height="30" viewBox="0 0 30 30" fill="none" xmlns="http://www.w3.org/2000/svg">
<path d="M4.76256 22.7626C4.07915 23.446 4.07915 24.554 4.76256 25.2374C5.44598 25.9209 6.55402 25.9209 7.23744 25.2374L4.76256 22.7626ZM16.2374 16.2374C16.9209 15.554 16.9209 14.446 16.2374 13.7626C15.554 13.0791 14.446 13.0791 13.7626 13.7626L16.2374 16.2374ZM13.7626 13.7626C13.0791 14.446 13.0791 15.554 13.7626 16.2374C14.446 16.9209 15.554 16.9209 16.2374 16.2374L13.7626 13.7626ZM25.2374 7.23744C25.9209 6.55402 25.9209 5.44598 25.2374 4.76256C24.554 4.07915 23.446 4.07915 22.7626 4.76256L25.2374 7.23744ZM16.2374 13.7626C15.554 13.0791 14.446 13.0791 13.7626 13.7626C13.0791 14.446 13.0791 15.554 13.7626 16.2374L16.2374 13.7626ZM22.7626 25.2374C23.446 25.9209 24.554 25.9209 25.2374 25.2374C25.9209 24.554 25.9209 23.446 25.2374 22.7626L22.7626 25.2374ZM13.7626 16.2374C14.446 16.9209 15.554 16.9209 16.2374 16.2374C16.9209 15.554 16.9209 14.446 16.2374 13.7626L13.7626 16.2374ZM7.23744 4.76256C6.55402 4.07915 5.44598 4.07915 4.76256 4.76256C4.07915 5.44598 4.07915 6.55402 4.76256 7.23744L7.23744 4.76256ZM7.23744 25.2374L16.2374 16.2374L13.7626 13.7626L4.76256 22.7626L7.23744 25.2374ZM16.2374 16.2374L25.2374 7.23744L22.7626 4.76256L13.7626 13.7626L16.2374 16.2374ZM13.7626 16.2374L22.7626 25.2374L25.2374 22.7626L16.2374 13.7626L13.7626 16.2374ZM16.2374 13.7626L7.23744 4.76256L4.76256 7.23744L13.7626 16.2374L16.2374 13.7626Z" fill="#284135"/>
</svg>
