<svg width="45" height="45" viewBox="0 0 45 45" fill="none" xmlns="http://www.w3.org/2000/svg">
<path d="M25.1449 28.6652C25.6594 28.6652 27.675 40.5112 27.7607 41.3209C27.8465 42.1305 30.4623 41.8748 30.8483 41.8322C31.1667 41.7971 31.6309 29.7609 31.8319 24.6597M25.1449 28.6652C24.763 28.6652 23.2239 29.4397 20.6851 29.9087M25.1449 28.6652L26.6458 27.8555M7.86309 15.5408C7.86309 15.5408 9.70709 15.0294 10.2216 14.9868C10.402 14.9719 11.5206 14.9674 12.9233 14.9624M7.86309 15.5408C7.86309 15.5408 7.12436 15.8366 6.30662 16.4782M7.86309 15.5408C7.98323 15.7966 7.99178 16.1799 8.09181 16.4782C8.19185 16.7765 8.58355 17.0748 8.58355 17.0748M5.37592 17.3627C4.91275 17.9025 4.50976 18.57 4.30381 19.3758C3.61763 22.0604 4.00365 23.8074 3.61768 26.5772C3.23171 29.347 4.04655 40.6391 4.30381 41.5765C4.56106 42.514 6.70526 42.2583 6.87678 41.5765C7.0483 40.8948 10.3074 29.0487 10.3074 29.0487C10.3074 29.0487 11.7046 29.6744 13.9525 30.0252M5.37592 17.3627C5.37592 17.3627 6.87682 18.0548 7.13412 18.0122C7.39142 17.9696 6.59832 19.9839 7.21989 20.9524C7.77276 21.8139 8.46442 22.2742 9.49268 22.2734C10.3174 22.2728 11.1651 21.2933 11.4224 21.4212C11.6797 21.549 12.3073 22.4993 12.323 22.7848M5.37592 17.3627C5.67341 17.0161 5.99572 16.7222 6.30662 16.4782M12.323 22.7848C12.1943 25.2562 13.4625 25.0432 13.2664 25.2562C13.0702 25.4693 12.6769 26.6175 12.8804 27.472C13.0741 28.2853 14.124 29.2191 14.124 29.2191L13.9525 30.0252M12.323 22.7848L14.5529 23.9965M13.9525 30.0252C14.6718 30.1374 15.4783 30.2215 16.3539 30.2478M8.76367 17.4583C8.76367 17.4583 7.95389 18.6305 8.12043 19.4184C8.28622 20.2028 8.97808 20.7394 9.49268 20.9524C10.0073 21.1655 10.5281 21.2415 11.0793 20.9418C11.6598 20.6261 12.1943 19.4184 12.1943 19.4184M8.76367 17.4583C8.76367 17.4583 9.13089 18.8881 9.87863 19.2054C10.6338 19.5258 11.937 18.7792 11.937 18.7792L12.1943 19.4184M8.76367 17.4583L8.58355 17.0748M21.4999 18.1827C20.8138 16.5208 19.4843 14.859 19.4843 14.859M21.4999 18.1827C21.843 18.9923 22.0574 18.694 21.8858 19.8019C21.7143 20.9098 21.1429 21.1485 20.2992 21.336C19.5936 21.4927 19.0375 21.3882 18.4981 20.9098C17.9877 20.4571 17.8548 19.2906 17.8548 19.2906M21.4999 18.1827C21.2264 18.8854 20.647 19.399 19.9132 19.5889C19.2711 19.7551 18.2408 19.2906 18.2408 19.2906M21.4999 18.1827C21.1191 18.3215 20.7712 18.4448 20.4126 18.5677M19.4843 14.859C19.1659 14.9268 16.7241 14.9466 14.4242 14.9567M19.4843 14.859C19.5948 14.8355 19.7382 14.6677 19.9132 14.3966M12.9233 14.9624C13.4808 15.5408 9.79286 15.839 9.87863 16.6487C9.96439 17.4583 10.6934 17.4583 10.6934 17.4583C10.6934 17.4583 10.6973 17.4614 10.7043 17.4674M12.9233 14.9624L13.0723 14.9619C13.5049 14.9603 13.9617 14.9587 14.4242 14.9567M10.7043 17.4674C10.7821 17.5334 11.2453 17.9426 11.1651 18.2679C11.0822 18.6042 10.7845 18.7731 10.4361 18.7792C9.93378 18.7881 9.4498 18.3105 9.66421 17.7566C9.76512 17.4959 10.1699 17.4617 10.7043 17.4674ZM10.7043 17.4674C11.3055 17.4739 12.0707 17.531 12.7518 17.3731C14.0383 17.0748 14.5833 16.2873 14.4034 14.9868M14.4242 14.9567C14.4242 14.9567 14.4284 14.9731 14.4366 15.0031M14.4242 14.9567L14.4034 14.9868M14.4366 15.0031C14.51 15.2692 14.9081 16.6052 15.6249 17.0748C16.294 17.5131 17.083 17.5435 17.6404 17.4583C18.1979 17.3731 18.4981 16.5634 18.4981 16.393C18.4981 16.2225 18.2408 15.839 17.426 15.7112C16.6275 15.5859 15.0041 15.2716 14.4366 15.0031ZM14.4366 15.0031C14.4251 14.9977 14.414 14.9922 14.4034 14.9868M12.1943 19.4184L13.0702 20.0576M13.0702 20.0576C13.2144 20.9458 14.0428 21.5503 14.9388 21.4212C15.7667 21.3019 16.3539 19.8232 16.3539 19.8232M13.0702 20.0576C12.8747 20.7981 12.9988 21.3778 13.4808 21.9751C13.9829 22.5974 14.5692 22.8659 15.3676 22.7848C16.0165 22.7188 16.4975 22.5353 16.8257 21.9751C17.2611 21.2318 16.3539 19.8232 16.3539 19.8232M16.3539 19.8232L16.8257 19.2906H17.8548M31.8319 24.6597C31.8319 24.6597 30.977 23.8927 30.6339 24.0205C30.2909 24.1483 30.2051 24.7449 29.3903 24.6597C28.5756 24.5744 28.7625 24.0122 28.2325 23.8927C27.7564 23.7853 27.4654 24.1261 26.9889 24.0205C26.4358 23.8979 26.2599 23.2109 25.7882 23.2109C25.3165 23.2109 25.1021 23.637 23.9871 23.2109C22.8721 22.7848 23.6869 21.8047 23.0437 21.8899C22.4004 21.9751 22.572 21.0803 21.9716 21.4212C21.3712 21.7621 19.9637 22.9159 19.5702 22.6995L18.5624 22.1456M31.8319 24.6597C31.8515 24.1615 31.8686 23.7296 31.8828 23.3813M30.7626 25.0858L30.5482 28.793M20.8566 28.793C22.5634 28.6308 23.5065 28.285 25.1449 27.259M18.5624 22.1456C18.2553 21.9768 17.6404 21.1229 17.5547 21.5916C17.4689 22.0604 16.8257 23.5518 16.8257 23.5518C16.4732 23.697 16.0966 24.1785 16.0966 24.1785M18.5624 22.1456C18.5624 22.1456 18.1326 23.1553 18.2408 23.8074C18.3469 24.4469 18.9182 24.6226 19.0556 25.2562C19.1543 25.7117 18.8692 26.0218 19.0556 26.4494C19.2392 26.8706 19.7429 26.8323 19.9132 27.259C20.1409 27.8295 19.3129 28.5373 19.7417 28.8782C20.1705 29.2191 20.6851 29.9087 20.6851 29.9087M20.6851 29.9087C20.256 29.988 19.7983 30.0586 19.3129 30.1152M16.0966 24.1785C16.0966 24.1785 15.3676 24.404 15.0675 24.2762C14.7673 24.1483 14.5529 23.9965 14.5529 23.9965M16.0966 24.1785C16.0966 24.1785 17.5547 24.404 17.8548 25.0006C18.155 25.5971 16.697 25.9806 16.2682 26.3215C15.8393 26.6624 18.5624 26.6624 18.7983 27.472C19.0341 28.2817 17.5118 28.1112 17.4689 28.5799C17.4476 28.8129 18.3317 28.5969 18.7951 28.9208C19.2642 29.2488 19.3129 30.1152 19.3129 30.1152M19.3129 30.1152C18.8003 30.175 18.2568 30.2192 17.6833 30.2418C17.2251 30.2598 16.7813 30.2607 16.3539 30.2478M14.5529 23.9965C14.5529 23.9965 13.9453 24.3415 13.9525 24.7023C13.9621 25.1859 15.0675 24.8727 15.0675 25.2562C15.0675 25.6397 13.9911 26.1288 14.124 26.8329C14.2749 27.6323 16.0538 27.5999 15.9251 27.8982C15.7965 28.1964 15.0547 28.6133 15.2819 29.0913C15.4744 29.4965 16.3539 29.3043 16.3539 29.5174V30.2478M17.8548 19.2906H18.2408M18.2408 19.2906L19.685 18.8122M19.685 18.8122L19.7846 18.7792M19.685 18.8122C19.7242 18.811 19.7582 18.8007 19.7846 18.7792M19.685 18.8122C19.3933 18.8211 18.8135 18.3228 18.9269 18.0975C19.0556 17.8418 19.3312 17.5991 19.6988 17.5435C20.0653 17.4881 20.4322 17.513 20.5993 17.8418C20.7163 18.0717 20.6086 18.366 20.4126 18.5677M19.7846 18.7792C20.0027 18.707 20.2094 18.6374 20.4126 18.5677M19.7846 18.7792C20.0005 18.8508 20.2406 18.7449 20.4126 18.5677M19.9132 14.3966L22.4433 17.714L24.1586 17.0748L26.1312 17.8418C26.1312 17.8418 26.6052 17.9191 27.24 17.9795M19.9132 14.3966C20.4877 13.5066 21.4027 11.5028 22.6094 9.83078M27.24 17.9795C28.1681 18.0679 29.4398 18.1201 30.0765 17.8418C31.136 17.3785 33.7872 13.4639 34.5527 13.287M27.24 17.9795C26.8184 17.5389 26.4725 16.9878 26.2782 16.6659M27.24 17.9795C27.6268 18.3838 28.0772 18.6952 28.5327 18.6514C29.8621 18.5236 30.0744 19.3842 31.2343 19.6315C31.7549 19.7425 32.5806 19.8445 32.5806 19.8445M34.5527 13.287C34.5618 13.2849 34.5706 13.2834 34.5791 13.2823C34.6026 13.2795 34.6228 13.277 34.6398 13.2749M34.5527 13.287C34.5868 13.2822 34.616 13.2781 34.6398 13.2749M34.5527 13.287C34.0681 13.3561 32.6128 13.5861 31.9204 13.9215C30.5998 14.5612 30.5634 15.9984 29.1759 16.4782C28.1938 16.8179 26.7646 17.0197 26.2782 16.6659M34.6398 13.2749C34.7439 13.2619 34.7323 13.2623 34.6398 13.2749ZM26.2782 16.6659C26.2085 16.6152 26.1581 16.553 26.1312 16.4782C26.0704 16.3088 26.1305 16.4211 26.2782 16.6659ZM32.5806 19.8445C33.2921 17.6158 34.3514 14.9868 34.5791 14.9868C34.7933 14.9868 36.0104 15.6512 37.2808 16.0052M32.5806 19.8445C32.4622 20.2154 32.3535 20.5751 32.2598 20.9098M32.0491 22.1456C32.0491 22.1456 32.0186 22.1392 31.9703 22.1264M31.9703 22.1264C31.8417 22.0924 31.5868 22.0131 31.4487 21.8899C31.1372 21.6119 31.1485 20.8672 31.1485 20.8672M31.9703 22.1264C31.9437 22.2806 31.9265 22.4161 31.9204 22.5291C31.9123 22.6783 31.8995 22.972 31.8828 23.3813M31.9703 22.1264C32.0277 21.7948 32.1291 21.3767 32.2598 20.9098M31.1485 20.8672C31.1485 20.8672 30.3058 21.9454 29.6476 21.7621C28.8877 21.5504 29.0473 19.8445 29.0473 19.8445M31.1485 20.8672L32.2598 20.9098M31.1485 20.8672C31.1485 20.8672 30.7577 20.2728 30.3766 20.0576C29.9195 19.7994 29.0473 19.8445 29.0473 19.8445M29.0473 19.8445C29.0473 19.8445 28.1867 21.6671 27.3748 21.336C26.6183 21.0273 26.9889 19.2906 26.9889 19.2906M29.0473 19.8445L26.9889 19.2906M26.9889 19.2906C26.9889 19.2906 25.5738 20.6968 25.1021 20.6116C24.6303 20.5263 24.8742 19.1832 24.6732 18.2679M26.9889 19.2906C26.9889 19.2906 25.611 18.6673 24.6732 18.2679M24.6732 18.2679C23.9398 18.0251 22.3575 19.9724 22.7864 20.6116C23.2152 21.2507 23.5583 19.7167 23.8584 20.0576C24.1586 20.3985 23.6607 22.0152 24.5017 22.2308C25.1473 22.3963 25.7024 21.7621 26.1312 21.4212C26.5601 21.0803 26.4048 22.5475 26.9889 22.6995C27.5685 22.8504 28.1039 22.2308 28.3612 22.0177C28.6184 21.8047 28.7135 23.1053 29.3046 23.2535C29.9218 23.4082 30.1322 22.4409 30.7626 22.5291C31.3082 22.6054 31.8828 23.3813 31.8828 23.3813M27.7607 34.6308C27.8719 37.5834 27.9616 39.1844 29.0473 40.213M29.0473 38.1676L29.6476 39.8295M5.20439 22.5717C4.59002 26.0648 4.06124 31.5734 4.30381 31.6054M5.50457 28.0686C5.22371 29.7401 5.13748 30.5497 5.20439 31.6054M5.9334 30.6253V31.8611M5.50457 38.2954L5.20439 39.5738M6.44799 37.571L5.50457 41.2783M8.76367 27.259C9.69147 28.0518 10.2719 28.3636 11.4224 28.6652M10.3932 27.3442C10.9544 27.6986 11.2304 27.8534 11.5939 27.9834M22.6094 9.83078C23.0333 9.24339 23.4933 8.69695 23.9871 8.25415L24.0344 8.21167C24.1486 8.1093 24.2594 8.00987 24.3677 7.91325M22.6094 9.83078L23.1267 10.8322M23.8584 15.1572C23.8584 15.1572 24.5652 16.0088 25.1449 15.9243C25.5079 15.8713 25.9439 15.4335 25.9439 15.4335M23.8584 15.1572L23.688 12.5153M23.8584 15.1572C23.8584 15.1572 22.746 15.2198 22.4433 14.7311C22.0222 14.0511 23.644 13.0709 23.644 13.0709M28.1039 5.50128C28.2012 5.46662 28.3012 5.4326 28.404 5.39916C28.6062 5.33339 28.8225 5.27542 29.0473 5.22457M28.1039 5.50128C27.5792 5.68801 27.1297 5.8931 26.7186 6.12356M28.1039 5.50128C28.1039 5.50128 28.4956 6.99985 28.8757 7.91325C29.265 8.84866 30.1092 9.20258 30.0765 10.2143C30.0456 11.1674 28.8757 12.3449 28.8757 12.3449M28.1039 5.50128L27.1471 7.3593M26.7186 6.12356C25.8788 6.59437 25.1995 7.17104 24.3677 7.91325M26.7186 6.12356L27.1471 7.3593M28.8757 12.3449L28.2539 13.3707M28.8757 12.3449L28.5212 11.3222M32.6298 4.92339C32.9353 4.94071 33.1323 4.9737 33.164 5.01566C33.1963 5.05847 33.3937 4.92114 33.6786 4.69685M32.6298 4.92339C31.8355 4.87839 30.3081 4.93938 29.0473 5.22457M32.6298 4.92339C32.598 4.87249 32.5806 4.8452 32.5806 4.8452M32.6298 4.92339C32.8868 5.33554 34.083 7.29568 34.5791 8.85071M29.0473 5.22457L29.0255 6.37923M30.8912 12.771L31.6631 10.2143L30.9599 9.1916M30.8912 12.771L29.5726 13.0709M30.8912 12.771C30.8912 12.771 30.9975 13.5963 30.6339 13.7937C30.193 14.0331 29.5726 13.0709 29.5726 13.0709M28.2539 13.3707L29.5726 13.0709M28.2539 13.3707L27.7651 14.1772M29.5726 13.0709C29.5726 13.0709 29.7912 14.4659 29.1759 14.7311C28.6325 14.9654 27.7651 14.1772 27.7651 14.1772M27.6321 14.3966L27.7651 14.1772M27.6321 14.3966C27.6321 14.3966 27.9719 15.3244 27.6321 15.7112C27.1927 16.2115 25.9439 15.4335 25.9439 15.4335M27.6321 14.3966L25.9439 15.4335M27.6321 14.3966L26.7186 13.7937M30.9599 9.1916L31.9204 8.25415C31.9204 8.25415 31.5728 7.7672 31.2343 7.65758C30.8581 7.53575 30.2792 7.81069 30.1216 7.89166M30.9599 9.1916L30.0808 7.91325M30.9599 9.1916C30.9599 9.1916 33.489 8.42887 32.9067 7.65758C32.595 7.24471 31.6631 7.18885 31.6631 7.18885C31.6631 7.18885 31.5456 6.26561 31.1057 5.99572C30.5421 5.64999 29.0255 6.37923 29.0255 6.37923M30.0808 7.91325C30.0808 7.91325 29.974 7.75715 29.9049 7.65758C29.6468 7.28547 29.6905 7.3593 29.2295 6.71479M30.0808 7.91325C30.0808 7.91325 30.0953 7.90514 30.1216 7.89166M30.0808 7.91325C30.0808 7.91325 30.0957 7.90573 30.1216 7.89166M30.1216 7.89166C30.3006 7.79425 31.0027 7.38272 30.8912 6.97579C30.7534 6.47233 29.551 6.30225 29.2295 6.71479M29.2295 6.71479L29.0255 6.37923M34.5791 8.85071C34.333 9.03456 34.2345 9.27239 34.279 9.57511C34.3286 9.91297 34.5581 10.3354 34.8794 10.2143C34.9542 10.1861 35.0509 10.1026 35.0509 10.1026M34.5791 8.85071H35.6084M35.6084 8.85071C35.7987 8.607 36.3826 9.2356 36.123 9.40466L35.4684 9.83078M35.6084 8.85071C35.008 7.0184 33.6786 4.69685 33.6786 4.69685M33.6786 4.69685C34.5281 4.0283 36.1557 2.5872 36.5089 2.84246C36.9805 3.18335 36.3802 6.08095 36.5089 7.18885C36.5977 7.95369 38.9754 10.0588 40.4112 11.4855M35.0509 10.1026C35.0509 10.1026 37.8383 13.0709 38.3957 13.2823C38.9532 13.4938 37.2808 16.0052 37.2808 16.0052M35.0509 10.1026L35.4684 9.83078M37.2808 16.0052C37.5822 16.0892 37.8866 16.1557 38.1813 16.1917M35.0509 13.9215L36.852 14.7311M36.123 13.6232L37.1093 14.1772M40.4112 11.4855C40.4112 11.4855 39.1676 13.0693 38.9532 13.0709C38.7388 13.0724 35.4684 9.83078 35.4684 9.83078M40.4112 11.4855C40.5653 11.6385 40.7085 11.7838 40.8369 11.9188M40.8369 11.9188C41.2452 12.348 41.5035 12.6731 41.4833 12.8136C41.4416 13.1034 41.3291 13.7449 41.0426 14.3966M40.8369 11.9188C40.8369 11.9188 39.4249 13.2823 39.6394 13.6232C39.8538 13.9641 41.0426 14.3966 41.0426 14.3966M41.0426 14.3966C40.922 14.6711 40.7704 14.9473 40.5803 15.1999M40.5803 15.1999C40.2925 15.5821 39.9163 15.9099 39.4249 16.0947C39.0639 16.2305 38.634 16.2471 38.1813 16.1917M40.5803 15.1999C40.5803 15.1999 39.4249 14.3966 39.1676 14.3966C38.9104 14.3966 38.1813 16.1917 38.1813 16.1917M24.3677 7.91325L24.5848 8.28115M26.7186 12.1744C26.7186 12.1744 27.6286 12.8045 28.1039 12.5153C28.5272 12.2577 28.5212 11.3222 28.5212 11.3222M26.7186 12.1744L26.283 11.3222M26.7186 12.1744V13.7937M28.5212 11.3222L28.1961 10.3847M28.1961 10.3847L27.7855 10.8535M28.1961 10.3847L27.2505 7.65758M26.283 11.3222L25.6595 10.1026L25.4991 9.83078M26.283 11.3222C26.283 11.3222 25.1309 10.9826 24.8019 10.3847C24.4746 9.79 24.8019 8.64905 24.8019 8.64905M26.283 11.3222H26.5601M24.8019 8.64905L24.5848 8.28115M24.8019 8.64905L25.1021 9.15779M24.5848 8.28115L23.7795 11.3222M23.7795 11.3222L23.644 11.8335M23.7795 11.3222L25.1021 13.0709L24.5875 14.859L26.7186 13.7937M23.644 11.8335L23.1267 10.8322M23.644 11.8335L23.688 12.5153M26.5601 11.3222C26.5601 11.3222 27.0937 11.4702 27.3748 11.3222C27.5907 11.2086 27.7855 10.8535 27.7855 10.8535M26.5601 11.3222C26.5601 11.3222 26.506 10.7957 26.7186 10.5978C27.0315 10.3067 27.7855 10.8535 27.7855 10.8535M25.4991 9.83078C25.4991 9.83078 26.2242 9.83608 26.5601 9.57511C26.9944 9.23759 27.0357 8.25415 27.0357 8.25415M25.4991 9.83078L25.1021 9.15779M27.2505 7.65758L27.1471 7.3593M27.2505 7.65758L27.0357 8.25415M27.0357 8.25415C27.0357 8.25415 26.7635 7.80874 26.5601 7.91325C26.419 7.98573 26.3918 8.28115 26.3918 8.28115M25.1021 9.15779C25.1021 9.15779 25.8499 9.16009 26.1312 8.85071C26.2961 8.66943 26.3918 8.28115 26.3918 8.28115M25.1021 9.15779C25.1021 9.15779 25.0407 8.4916 25.3165 8.25415C25.6339 7.98078 26.3918 8.28115 26.3918 8.28115M23.1267 10.8322C23.1267 10.8322 22.0275 11.8462 22.4433 12.3449C22.7564 12.7203 23.688 12.5153 23.688 12.5153M6.30662 16.4782C6.30662 16.4782 6.81524 16.9399 7.21989 17.0748C7.72477 17.2431 8.07754 17.1174 8.58355 17.0748M21.5857 27.5999C21.8945 27.4746 22.1431 27.4042 22.6148 27.1825C23.0866 26.9607 23.6869 26.7476 23.6869 26.7476M14.5529 18.7792C14.0665 18.7371 13.5577 18.9393 13.4808 19.4184C13.3946 19.955 14.0066 20.3372 14.5529 20.3133C15.018 20.2929 15.4709 20.0508 15.4963 19.5889C15.5228 19.1059 15.0378 18.8213 14.5529 18.7792ZM31.9204 12.1744C33.5071 11.4855 33.0354 9.57511 33.164 9.40466C33.2926 9.23421 34.1482 10.1822 34.279 10.8961C34.4175 11.652 34.3219 12.771 33.6786 12.771C33.0354 12.771 30.3337 12.8634 31.9204 12.1744Z" stroke="#284135" stroke-width="0.6"/>
</svg>
