<svg width="32" height="32" viewBox="0 0 32 32" fill="none" xmlns="http://www.w3.org/2000/svg">
<path d="M17.8808 20.3841C18.2467 20.3841 19.68 28.808 19.741 29.3837C19.8019 29.9595 21.6621 29.7777 21.9366 29.7474C22.163 29.7224 22.4931 21.1633 22.636 17.5358M17.8808 20.3841C17.6093 20.3841 16.5147 20.9349 14.7094 21.2684M17.8808 20.3841L18.9482 19.8084M5.59153 11.0512C5.59153 11.0512 6.90282 10.6876 7.26873 10.6573C7.39701 10.6467 8.19246 10.6435 9.18991 10.6399M5.59153 11.0512C5.59153 11.0512 5.06621 11.2616 4.48471 11.7178M5.59153 11.0512C5.67697 11.2331 5.68304 11.5057 5.75418 11.7178C5.82531 11.93 6.10386 12.1421 6.10386 12.1421M3.82288 12.3468C3.49351 12.7306 3.20694 13.2054 3.06048 13.7784C2.57254 15.6874 2.84704 16.9297 2.57257 18.8993C2.29811 20.869 2.87755 28.8989 3.06048 29.5655C3.24342 30.2322 4.76818 30.0504 4.89015 29.5655C5.01212 29.0807 7.32972 20.6568 7.32972 20.6568C7.32972 20.6568 8.32329 21.1018 9.92178 21.3512M3.82288 12.3468C3.82288 12.3468 4.89019 12.839 5.07315 12.8087C5.25612 12.7784 4.69214 14.2108 5.13414 14.8995C5.5273 15.5121 6.01914 15.8394 6.75035 15.8389C7.33679 15.8384 7.93964 15.1419 8.1226 15.2328C8.30557 15.3237 8.75187 15.9995 8.76299 16.2025M3.82288 12.3468C4.03442 12.1003 4.26363 11.8913 4.48471 11.7178M8.76299 16.2025C8.6715 17.96 9.57336 17.8085 9.43387 17.96C9.29437 18.1115 9.01466 18.928 9.15942 19.5357C9.29716 20.114 10.0438 20.778 10.0438 20.778L9.92178 21.3512M8.76299 16.2025L10.3487 17.0642M9.92178 21.3512C10.4333 21.431 11.0068 21.4908 11.6295 21.5096M6.23194 12.4148C6.23194 12.4148 5.6561 13.2483 5.77453 13.8087C5.89242 14.3665 6.38442 14.748 6.75035 14.8995C7.11628 15.051 7.48664 15.1051 7.87865 14.8919C8.29139 14.6675 8.6715 13.8087 8.6715 13.8087M6.23194 12.4148C6.23194 12.4148 6.49308 13.4316 7.0248 13.6571C7.5618 13.885 8.48854 13.3541 8.48854 13.3541L8.6715 13.8087M6.23194 12.4148L6.10386 12.1421M15.2888 12.9299C14.8009 11.7481 13.8555 10.5664 13.8555 10.5664M15.2888 12.9299C15.5328 13.5056 15.6852 13.2935 15.5633 14.0814C15.4413 14.8692 15.0349 15.0389 14.435 15.1722C13.9332 15.2837 13.5378 15.2094 13.1542 14.8692C12.7912 14.5473 12.6968 13.7178 12.6968 13.7178M15.2888 12.9299C15.0943 13.4296 14.6823 13.7948 14.1605 13.9299C13.7039 14.0481 12.9712 13.7178 12.9712 13.7178M15.2888 12.9299C15.018 13.0286 14.7706 13.1163 14.5156 13.2037M13.8555 10.5664C13.6291 10.6146 11.8927 10.6287 10.2572 10.6359M13.8555 10.5664C13.9341 10.5497 14.0361 10.4304 14.1605 10.2376M9.18991 10.6399C9.58634 11.0512 6.96381 11.2633 7.0248 11.839C7.08579 12.4148 7.6042 12.4148 7.6042 12.4148C7.6042 12.4148 7.60696 12.417 7.61198 12.4213M9.18991 10.6399L9.29587 10.6396C9.6035 10.6385 9.92832 10.6373 10.2572 10.6359M7.61198 12.4213C7.66727 12.4682 7.99664 12.7592 7.93964 12.9905C7.88069 13.2297 7.669 13.3498 7.42123 13.3541C7.06402 13.3604 6.71986 13.0208 6.87233 12.6269C6.94408 12.4415 7.23195 12.4172 7.61198 12.4213ZM7.61198 12.4213C8.03949 12.4259 8.58362 12.4665 9.06793 12.3542C9.98277 12.1421 10.3704 11.5821 10.2424 10.6573M10.2572 10.6359C10.2572 10.6359 10.2602 10.6475 10.2661 10.6689M10.2572 10.6359L10.2424 10.6573M10.2661 10.6689C10.3182 10.8581 10.6014 11.8082 11.1111 12.1421C11.5869 12.4538 12.1479 12.4754 12.5443 12.4148C12.9407 12.3542 13.1542 11.7784 13.1542 11.6572C13.1542 11.536 12.9712 11.2633 12.3918 11.1724C11.824 11.0833 10.6695 10.8598 10.2661 10.6689ZM10.2661 10.6689C10.2579 10.665 10.25 10.6611 10.2424 10.6573M8.6715 13.8087L9.29437 14.2632M9.29437 14.2632C9.3969 14.8948 9.986 15.3247 10.6232 15.2328C11.2119 15.148 11.6295 14.0965 11.6295 14.0965M9.29437 14.2632C9.15534 14.7898 9.2436 15.202 9.58634 15.6268C9.94338 16.0692 10.3603 16.2602 10.9281 16.2025C11.3895 16.1556 11.7316 16.0251 11.9649 15.6268C12.2745 15.0982 11.6295 14.0965 11.6295 14.0965M11.6295 14.0965L11.9649 13.7178H12.6968M22.636 17.5358C22.636 17.5358 22.0281 16.9903 21.7841 17.0812C21.5402 17.1721 21.4792 17.5964 20.8998 17.5358C20.3204 17.4752 20.4533 17.0753 20.0764 16.9903C19.7379 16.914 19.531 17.1563 19.1921 17.0812C18.7988 16.9941 18.6737 16.5055 18.3383 16.5055C18.0028 16.5055 17.8503 16.8085 17.0575 16.5055C16.2646 16.2025 16.844 15.5056 16.3866 15.5662C15.9292 15.6268 16.0512 14.9904 15.6242 15.2328C15.1973 15.4752 14.1964 16.2957 13.9166 16.1419L13.1999 15.748M22.636 17.5358C22.6499 17.1815 22.6621 16.8744 22.6722 16.6267M21.8756 17.8388L21.7232 20.475M14.8314 20.475C16.0451 20.3597 16.7158 20.1138 17.8808 19.3842M13.1999 15.748C12.9816 15.6279 12.5443 15.0207 12.4833 15.354C12.4223 15.6874 11.9649 16.7479 11.9649 16.7479C11.7143 16.8512 11.4465 17.1936 11.4465 17.1936M13.1999 15.748C13.1999 15.748 12.8943 16.466 12.9712 16.9297C13.0467 17.3845 13.4529 17.5094 13.5506 17.96C13.6209 18.2839 13.4181 18.5044 13.5506 18.8084C13.6812 19.108 14.0394 19.0807 14.1605 19.3842C14.3224 19.7898 13.7336 20.2932 14.0385 20.5356C14.3435 20.778 14.7094 21.2684 14.7094 21.2684M14.7094 21.2684C14.4043 21.3248 14.0788 21.375 13.7336 21.4153M11.4465 17.1936C11.4465 17.1936 10.9281 17.354 10.7146 17.263C10.5012 17.1721 10.3487 17.0642 10.3487 17.0642M11.4465 17.1936C11.4465 17.1936 12.4833 17.354 12.6968 17.7782C12.9102 18.2024 11.8734 18.4751 11.5685 18.7175C11.2635 18.9599 13.1999 18.9599 13.3677 19.5357C13.5354 20.1114 12.4528 19.9902 12.4223 20.3235C12.4072 20.4892 13.0359 20.3356 13.3654 20.5659C13.699 20.7991 13.7336 21.4153 13.7336 21.4153M13.7336 21.4153C13.3691 21.4578 12.9826 21.4892 12.5748 21.5053C12.2489 21.5181 11.9333 21.5187 11.6295 21.5096M10.3487 17.0642C10.3487 17.0642 9.91666 17.3095 9.92178 17.5661C9.92863 17.91 10.7146 17.6873 10.7146 17.96C10.7146 18.2327 9.94925 18.5805 10.0438 19.0812C10.1511 19.6496 11.416 19.6266 11.3245 19.8387C11.233 20.0508 10.7056 20.3472 10.8671 20.6871C11.004 20.9753 11.6295 20.8386 11.6295 20.9902V21.5096M12.6968 13.7178H12.9712M12.9712 13.7178L13.9982 13.3776M13.9982 13.3776L14.069 13.3541M13.9982 13.3776C14.0261 13.3767 14.0503 13.3694 14.069 13.3541M13.9982 13.3776C13.7908 13.3839 13.3785 13.0296 13.4591 12.8693C13.5506 12.6875 13.7466 12.5149 14.008 12.4754C14.2687 12.436 14.5295 12.4537 14.6484 12.6875C14.7316 12.851 14.655 13.0602 14.5156 13.2037M14.069 13.3541C14.2241 13.3028 14.3711 13.2533 14.5156 13.2037M14.069 13.3541C14.2226 13.405 14.3933 13.3297 14.5156 13.2037M14.1605 10.2376L15.9597 12.5966L17.1795 12.1421L18.5822 12.6875C18.5822 12.6875 18.9193 12.7425 19.3707 12.7855M14.1605 10.2376C14.5691 9.60468 15.2197 8.17975 16.0778 6.99078M19.3707 12.7855C20.0306 12.8483 20.935 12.8854 21.3877 12.6875C22.1412 12.3581 24.0264 9.57431 24.5708 9.44855M19.3707 12.7855C19.0709 12.4721 18.8249 12.0802 18.6867 11.8513M19.3707 12.7855C19.6457 13.073 19.966 13.2944 20.2899 13.2632C21.2352 13.1723 21.3862 13.7843 22.2111 13.9602C22.5812 14.0391 23.1684 14.1117 23.1684 14.1117M24.5708 9.44855C24.5773 9.44706 24.5835 9.44595 24.5896 9.44521C24.6063 9.44319 24.6206 9.44143 24.6328 9.43992M24.5708 9.44855C24.595 9.44511 24.6158 9.44222 24.6328 9.43992M24.5708 9.44855C24.2262 9.49766 23.1913 9.66121 22.6989 9.89974C21.7599 10.3547 21.734 11.3766 20.7473 11.7178C20.0489 11.9594 19.0326 12.1029 18.6867 11.8513M24.6328 9.43992C24.7068 9.43072 24.6985 9.43098 24.6328 9.43992ZM18.6867 11.8513C18.6371 11.8152 18.6013 11.771 18.5822 11.7178C18.5389 11.5974 18.5817 11.6773 18.6867 11.8513ZM23.1684 14.1117C23.6744 12.5268 24.4277 10.6573 24.5896 10.6573C24.7419 10.6573 25.6074 11.1297 26.5108 11.3815M23.1684 14.1117C23.0843 14.3754 23.0069 14.6312 22.9403 14.8692M22.7905 15.748C22.7905 15.748 22.7688 15.7434 22.7345 15.7343M22.7345 15.7343C22.643 15.7101 22.4617 15.6538 22.3635 15.5662C22.142 15.3685 22.1501 14.8389 22.1501 14.8389M22.7345 15.7343C22.7155 15.844 22.7033 15.9404 22.6989 16.0207C22.6932 16.1268 22.6841 16.3356 22.6722 16.6267M22.7345 15.7343C22.7753 15.4985 22.8474 15.2012 22.9403 14.8692M22.1501 14.8389C22.1501 14.8389 21.5508 15.6056 21.0828 15.4752C20.5424 15.3247 20.6558 14.1117 20.6558 14.1117M22.1501 14.8389L22.9403 14.8692M22.1501 14.8389C22.1501 14.8389 21.8721 14.4162 21.6012 14.2632C21.2761 14.0796 20.6558 14.1117 20.6558 14.1117M20.6558 14.1117C20.6558 14.1117 20.0439 15.4077 19.4666 15.1722C18.9285 14.9528 19.1921 13.7178 19.1921 13.7178M20.6558 14.1117L19.1921 13.7178M19.1921 13.7178C19.1921 13.7178 18.1858 14.7177 17.8503 14.6571C17.5149 14.5965 17.6883 13.6414 17.5454 12.9905M19.1921 13.7178C19.1921 13.7178 18.2123 13.2745 17.5454 12.9905M17.5454 12.9905C17.0238 12.8179 15.8987 14.2026 16.2036 14.6571C16.5086 15.1116 16.7525 14.0208 16.966 14.2632C17.1795 14.5056 16.8254 15.6552 17.4234 15.8086C17.8825 15.9263 18.2773 15.4752 18.5822 15.2328C18.8872 14.9904 18.7767 16.0338 19.1921 16.1419C19.6043 16.2492 19.985 15.8086 20.1679 15.6571C20.3509 15.5056 20.4185 16.4305 20.8388 16.5358C21.2778 16.6458 21.4274 15.9579 21.8756 16.0207C22.2636 16.075 22.6722 16.6267 22.6722 16.6267M19.741 24.6264C19.82 26.7259 19.8838 27.8645 20.6558 28.5959M20.6558 27.1414L21.0828 28.3232M3.7009 16.051C3.26402 18.535 2.88799 22.4522 3.06048 22.4749M3.91436 19.9599C3.71464 21.1485 3.65332 21.7242 3.7009 22.4749M4.21931 21.778V22.6568M3.91436 27.2323L3.7009 28.1414M4.58524 26.7172L3.91436 29.3534M6.23194 19.3842C6.89171 19.948 7.30443 20.1697 8.1226 20.3841M7.39071 19.4448C7.78977 19.6968 7.98609 19.8069 8.24458 19.8993M16.0778 6.99078C16.3793 6.57308 16.7063 6.1845 17.0575 5.86962L17.0911 5.83941C17.1723 5.76662 17.2512 5.69591 17.3282 5.6272M16.0778 6.99078L16.4457 7.70287M16.966 10.7785C16.966 10.7785 17.4686 11.3841 17.8808 11.3239C18.1389 11.2863 18.449 10.975 18.449 10.975M16.966 10.7785L16.8448 8.89978M16.966 10.7785C16.966 10.7785 16.1749 10.823 15.9597 10.4755C15.6602 9.99192 16.8135 9.29483 16.8135 9.29483M19.985 3.91202C20.0542 3.88738 20.1253 3.86318 20.1984 3.8394C20.3422 3.79263 20.496 3.75141 20.6558 3.71525M19.985 3.91202C19.6119 4.04481 19.2922 4.19065 18.9999 4.35453M19.985 3.91202C19.985 3.91202 20.2636 4.97767 20.5339 5.6272C20.8107 6.29238 21.411 6.54406 21.3877 7.26349C21.3658 7.94128 20.5339 8.77858 20.5339 8.77858M19.985 3.91202L19.3046 5.23328M18.9999 4.35453C18.4027 4.68933 17.9197 5.09941 17.3282 5.6272M18.9999 4.35453L19.3046 5.23328M20.5339 8.77858L20.0917 9.50807M20.5339 8.77858L20.2817 8.05134M23.2034 3.50108C23.4207 3.51339 23.5608 3.53686 23.5833 3.56669C23.6063 3.59714 23.7466 3.49947 23.9492 3.33998M23.2034 3.50108C22.6386 3.46908 21.5524 3.51245 20.6558 3.71525M23.2034 3.50108C23.1808 3.46488 23.1684 3.44548 23.1684 3.44548M23.2034 3.50108C23.3861 3.79416 24.2368 5.18804 24.5896 6.29384M20.6558 3.71525L20.6403 4.53634M21.9671 9.08159L22.516 7.26349L22.0159 6.53625M21.9671 9.08159L21.0294 9.29483M21.9671 9.08159C21.9671 9.08159 22.0427 9.66848 21.7841 9.80883C21.4706 9.97906 21.0294 9.29483 21.0294 9.29483M20.0917 9.50807L21.0294 9.29483M20.0917 9.50807L19.7441 10.0815M21.0294 9.29483C21.0294 9.29483 21.1848 10.2869 20.7473 10.4755C20.3609 10.6421 19.7441 10.0815 19.7441 10.0815M19.6495 10.2376L19.7441 10.0815M19.6495 10.2376C19.6495 10.2376 19.8911 10.8974 19.6495 11.1724C19.337 11.5281 18.449 10.975 18.449 10.975M19.6495 10.2376L18.449 10.975M19.6495 10.2376L18.9999 9.80883M22.0159 6.53625L22.6989 5.86962C22.6989 5.86962 22.4518 5.52334 22.2111 5.44539C21.9435 5.35876 21.5319 5.55427 21.4198 5.61185M22.0159 6.53625L21.3908 5.6272M22.0159 6.53625C22.0159 6.53625 23.8144 5.99386 23.4003 5.44539C23.1787 5.15179 22.516 5.11207 22.516 5.11207C22.516 5.11207 22.4324 4.45555 22.1196 4.26362C21.7189 4.01777 20.6403 4.53634 20.6403 4.53634M21.3908 5.6272C21.3908 5.6272 21.3148 5.51619 21.2657 5.44539C21.0822 5.18078 21.1133 5.23328 20.7854 4.77496M21.3908 5.6272C21.3908 5.6272 21.4011 5.62144 21.4198 5.61185M21.3908 5.6272C21.3908 5.6272 21.4014 5.62186 21.4198 5.61185M21.4198 5.61185C21.5471 5.54258 22.0463 5.24993 21.9671 4.96056C21.8691 4.60255 21.0141 4.4816 20.7854 4.77496M20.7854 4.77496L20.6403 4.53634M24.5896 6.29384C24.4146 6.42458 24.3445 6.5937 24.3762 6.80897C24.4115 7.04922 24.5746 7.34961 24.8031 7.26349C24.8563 7.24342 24.9251 7.18408 24.9251 7.18408M24.5896 6.29384H25.3215M25.3215 6.29384C25.4568 6.12053 25.8721 6.56754 25.6874 6.68776L25.222 6.99078M25.3215 6.29384C24.8946 4.99086 23.9492 3.33998 23.9492 3.33998M23.9492 3.33998C24.5533 2.86457 25.7107 1.83978 25.9619 2.0213C26.2973 2.26371 25.8703 4.32423 25.9619 5.11207C26.025 5.65595 27.7159 7.15293 28.7369 8.16745M24.9251 7.18408C24.9251 7.18408 26.9072 9.29483 27.3036 9.44521C27.7001 9.5956 26.5108 11.3815 26.5108 11.3815M24.9251 7.18408L25.222 6.99078M26.5108 11.3815C26.7251 11.4412 26.9416 11.4885 27.1512 11.5141M24.9251 9.89974L26.2058 10.4755M25.6874 9.68763L26.3888 10.0815M28.7369 8.16745C28.7369 8.16745 27.8525 9.2937 27.7001 9.29483C27.5476 9.29596 25.222 6.99078 25.222 6.99078M28.7369 8.16745C28.8464 8.2763 28.9483 8.37959 29.0396 8.47556M29.0396 8.47556C29.3299 8.78082 29.5136 9.01195 29.4992 9.1119C29.4696 9.31794 29.3896 9.77417 29.1859 10.2376M29.0396 8.47556C29.0396 8.47556 28.0355 9.44521 28.188 9.68763C28.3405 9.93004 29.1859 10.2376 29.1859 10.2376M29.1859 10.2376C29.1001 10.4328 28.9923 10.6292 28.8571 10.8088M28.8571 10.8088C28.6525 11.0806 28.3849 11.3137 28.0355 11.4451C27.7788 11.5417 27.4731 11.5535 27.1512 11.5141M28.8571 10.8088C28.8571 10.8088 28.0355 10.2376 27.8525 10.2376C27.6696 10.2376 27.1512 11.5141 27.1512 11.5141M17.3282 5.6272L17.4825 5.88882M18.9999 8.65737C18.9999 8.65737 19.647 9.10542 19.985 8.89978C20.286 8.71661 20.2817 8.05134 20.2817 8.05134M18.9999 8.65737L18.6901 8.05134M18.9999 8.65737V9.80883M20.2817 8.05134L20.0506 7.3847M20.0506 7.3847L19.7586 7.71802M20.0506 7.3847L19.3782 5.44539M18.6901 8.05134L18.2468 7.18408L18.1327 6.99078M18.6901 8.05134C18.6901 8.05134 17.8708 7.80988 17.6369 7.3847C17.4042 6.96178 17.6369 6.15043 17.6369 6.15043M18.6901 8.05134H18.8872M17.6369 6.15043L17.4825 5.88882M17.6369 6.15043L17.8503 6.51221M17.4825 5.88882L16.9098 8.05134M16.9098 8.05134L16.8135 8.41496M16.9098 8.05134L17.8503 9.29483L17.4844 10.5664L18.9999 9.80883M16.8135 8.41496L16.4457 7.70287M16.8135 8.41496L16.8448 8.89978M18.8872 8.05134C18.8872 8.05134 19.2666 8.15656 19.4666 8.05134C19.62 7.97056 19.7586 7.71802 19.7586 7.71802M18.8872 8.05134C18.8872 8.05134 18.8487 7.67691 18.9999 7.53621C19.2224 7.32923 19.7586 7.71802 19.7586 7.71802M18.1327 6.99078C18.1327 6.99078 18.6483 6.99454 18.8872 6.80897C19.196 6.56896 19.2254 5.86962 19.2254 5.86962M18.1327 6.99078L17.8503 6.51221M19.3782 5.44539L19.3046 5.23328M19.3782 5.44539L19.2254 5.86962M19.2254 5.86962C19.2254 5.86962 19.0318 5.55288 18.8872 5.6272C18.7868 5.67874 18.7675 5.88882 18.7675 5.88882M17.8503 6.51221C17.8503 6.51221 18.3821 6.51384 18.5822 6.29384C18.6994 6.16493 18.7675 5.88882 18.7675 5.88882M17.8503 6.51221C17.8503 6.51221 17.8067 6.03847 18.0028 5.86962C18.2286 5.67522 18.7675 5.88882 18.7675 5.88882M16.4457 7.70287C16.4457 7.70287 15.664 8.42399 15.9597 8.77858C16.1823 9.04556 16.8448 8.89978 16.8448 8.89978M4.48471 11.7178C4.48471 11.7178 4.8464 12.0461 5.13414 12.1421C5.49317 12.2618 5.74403 12.1724 6.10386 12.1421M15.3498 19.6266C15.5694 19.5375 15.7462 19.4874 16.0817 19.3297C16.4171 19.1721 16.844 19.0205 16.844 19.0205M10.3487 13.3541C10.0028 13.3241 9.64105 13.468 9.58634 13.8087C9.52507 14.1902 9.96026 14.462 10.3487 14.445C10.6795 14.4305 11.0016 14.2584 11.0196 13.9299C11.0384 13.5864 10.6936 13.384 10.3487 13.3541ZM22.6989 8.65737C23.8273 8.16745 23.4918 6.80897 23.5833 6.68776C23.6747 6.56655 24.2832 7.24071 24.3762 7.74832C24.4747 8.28588 24.4067 9.08159 23.9492 9.08159C23.4918 9.08159 21.5706 9.14729 22.6989 8.65737Z" stroke="#284135" stroke-width="0.4"/>
</svg>
