<svg width="200" height="33" viewBox="0 0 200 33" fill="none" xmlns="http://www.w3.org/2000/svg">
<path d="M88.55 0.457059C88.0969 0.913406 88.0813 0.992086 88.1438 1.93625C88.2376 3.43118 88.675 4.01341 90.4406 4.92611C91.7219 5.58702 92.2531 5.69718 91.6125 5.17788C91.4875 5.052 91.1906 4.65859 90.9719 4.28093C90.6125 3.65148 90.5812 3.50986 90.6906 2.36113C90.8156 0.960614 90.6906 0.582948 89.9875 0.221018C89.3313 -0.125176 89.0813 -0.0779676 88.55 0.457059Z" fill="#284135"/>
<path d="M109.877 0.284015C109.237 0.677417 109.158 0.992138 109.283 2.47133C109.408 3.84037 109.268 4.31245 108.518 5.00484C107.783 5.69723 108.096 5.68149 109.533 4.92616C111.299 4.01347 111.737 3.43123 111.83 1.9363C111.893 0.992138 111.877 0.913458 111.424 0.457112C110.877 -0.0936511 110.565 -0.125123 109.877 0.284015Z" fill="#284135"/>
<path d="M92.6435 3.63567C92.2998 4.01334 92.206 5.16207 92.4717 5.83873C92.6904 6.42096 93.4404 7.06614 94.5497 7.63264C95.6122 8.16767 95.8935 8.16767 95.2841 7.60117C94.6435 7.01893 94.4716 6.46817 94.581 5.25649C94.6747 4.20217 94.6591 4.10776 94.2997 3.71435C93.8154 3.17933 93.0966 3.14785 92.6435 3.63567Z" fill="#284135"/>
<path d="M105.955 3.39964C105.518 3.57273 105.314 4.31233 105.408 5.50827C105.486 6.67274 105.486 6.67274 104.924 7.33366C104.611 7.67985 104.361 8.02604 104.361 8.07325C104.361 8.30929 106.518 7.03467 107.018 6.53112C107.486 6.02756 107.564 5.83873 107.611 4.97324C107.658 4.13923 107.627 3.9504 107.33 3.63568C107.018 3.30522 106.439 3.19507 105.955 3.39964Z" fill="#284135"/>
<path d="M77.4104 3.80896C76.3948 4.29675 75.2699 5.5241 74.9262 6.51543C74.7699 6.95602 74.5981 7.44381 74.52 7.63263C74.4106 7.90013 74.1606 7.97881 72.9419 8.13616C69.6297 8.57675 64.0988 9.83558 59.2867 11.236C57.9586 11.6294 56.8025 11.9441 56.7244 11.9441C56.49 11.9441 56.9743 10.1188 57.4899 9.11175C58.1149 7.86866 58.9273 6.98749 59.896 6.46822C60.5522 6.12205 60.8959 6.04337 61.8646 6.0591C62.8645 6.0591 63.1926 6.12205 64.052 6.5469C64.6144 6.8144 65.3019 7.19205 65.5831 7.38087C66.333 7.90013 66.1924 7.50675 65.3487 6.75146C64.0363 5.58705 63.2395 5.2566 61.7084 5.2566C60.521 5.2566 60.2554 5.31955 59.3492 5.76013C57.2556 6.79866 55.6151 9.19043 55.4901 11.3462C55.4588 11.9441 55.412 12.4162 55.3963 12.4162C55.3807 12.4162 54.2089 12.8095 52.7871 13.2973C50.4279 14.0998 47.9594 14.7607 47.3032 14.7765C47.0688 14.7765 47.0219 14.6191 47.0219 13.7694C47.0219 12.6365 46.6782 11.9598 45.7876 11.3619C45.0846 10.8741 43.7253 10.8584 42.991 11.3147C42.1629 11.8182 41.7254 13.3603 42.2254 13.9897C42.8972 14.8551 44.2565 15.0597 44.9127 14.3831C45.4283 13.8795 45.4283 13.1557 44.9127 12.6522C44.5221 12.2588 43.5847 12.1015 43.5847 12.4319C43.5847 12.5106 43.6628 12.542 43.7565 12.4948C43.9753 12.3532 44.6158 12.5263 44.8971 12.8253C45.522 13.439 44.8815 14.6191 43.9284 14.6191C43.1941 14.6191 42.366 14.1156 42.241 13.5806C42.1004 13.0141 42.4129 12.0857 42.8816 11.6294C43.1628 11.3619 43.5066 11.236 44.1159 11.1888C45.647 11.0629 46.6938 11.8969 46.8344 13.376C46.9594 14.7922 46.9126 14.8551 45.2721 15.1541C44.4752 15.2957 43.116 15.516 42.2566 15.6419L40.7099 15.8622L40.1474 15.4531C39.8506 15.217 39.0381 14.5719 38.3507 14.0212C36.179 12.2588 34.1791 11.535 32.6636 11.9441C31.7418 12.1959 30.7418 13.2187 30.4762 14.1943C30.2888 14.8394 30.2888 16.114 30.4762 16.822C30.5231 17.0266 30.2731 17.0581 28.8982 17.0581C27.992 17.0581 26.2734 17.0109 25.0704 16.9637C23.8361 16.9007 23.3205 16.9165 23.8986 16.9794C24.461 17.0423 25.4141 17.1053 26.0078 17.121C28.0858 17.1682 27.5233 17.4043 24.8829 17.5931C19.0083 18.0179 14.743 18.2225 11.7901 18.2382C9.49337 18.2382 8.7278 18.2854 8.85279 18.4113C9.11839 18.6788 22.8049 18.0809 25.7422 17.6875C26.1016 17.6245 26.3984 17.6245 26.3984 17.656C26.3984 17.7032 26.0234 18.0022 25.5703 18.3326C24.8516 18.8676 24.6642 18.9306 23.9767 18.8991C23.3986 18.8676 22.9455 18.962 22.3362 19.2453C21.1488 19.7803 19.0239 20.3782 17.8053 20.5041C16.8835 20.5985 15.5242 20.4726 14.5711 20.1894C14.0555 20.0478 14.0868 20.5985 14.618 21.1335C15.1648 21.6685 15.9617 21.9045 17.1334 21.8259C17.6647 21.8101 18.0553 21.8259 18.024 21.8731C17.9928 21.936 17.2584 22.2822 16.3991 22.6441C15.0086 23.2421 14.7274 23.4309 13.8993 24.3435C13.3837 24.91 12.9619 25.4293 12.9619 25.4922C12.9619 25.6968 15.3523 25.6653 15.8679 25.4765C16.1023 25.3821 16.7585 24.9572 17.3209 24.5481C17.8834 24.1232 18.5552 23.6512 18.8208 23.4938C19.2583 23.2106 19.2583 23.2263 18.6333 24.0603C17.6178 25.4135 17.4303 26.1688 17.8834 27.05C18.1334 27.5535 18.4302 27.6794 18.4302 27.3018C18.4302 26.8612 19.0239 25.6968 19.7583 24.7212C20.1645 24.1862 21.3988 22.9431 22.5081 21.9675C24.1173 20.5513 24.5392 20.1107 24.6173 19.6859C24.6954 19.2925 24.9454 19.0093 25.7891 18.3956L26.8671 17.6088L28.742 17.42L30.6012 17.2312L31.1949 17.8763C32.4605 19.2295 34.6791 19.9219 38.3194 20.0793L40.6318 20.1737L38.8194 20.7087C36.4914 21.3695 35.0853 21.9675 33.8979 22.7857C33.3042 23.1948 32.7886 23.4309 32.4917 23.4309C31.4605 23.4309 30.6169 24.2019 30.6169 25.1146C30.6169 25.4765 30.5387 25.6338 30.3825 25.6338C30.2263 25.6338 30.1481 25.4765 30.1481 25.1932C30.1481 24.6582 29.5701 24.0603 29.0701 24.0603C28.867 24.0603 28.2733 24.3435 27.7421 24.7054C26.8046 25.3348 26.7734 25.3506 25.7422 25.2719C25.1329 25.2247 24.6798 25.2404 24.6798 25.3191C24.6798 25.4135 24.8829 25.6968 25.1329 25.98C25.5703 26.4678 25.6641 26.4993 26.8984 26.5779C28.1639 26.6566 28.1952 26.6723 28.1952 27.05C28.1952 27.4119 28.117 27.4591 27.414 27.5378C26.3984 27.6637 26.2265 27.7423 25.8359 28.356C25.586 28.7337 25.4766 29.2057 25.4141 30.1971C25.3672 30.9366 25.2735 31.7076 25.211 31.9122C25.1172 32.2426 25.1329 32.2584 25.4297 32.101C25.6172 32.0066 26.3515 31.865 27.0546 31.7863C27.7733 31.7234 28.5233 31.5818 28.7107 31.4716C29.1326 31.2513 29.4607 30.6219 29.6013 29.8037C29.7732 28.7651 29.8513 28.6078 30.1169 28.655C30.3356 28.7022 30.3825 28.9225 30.3825 29.9296V31.1569L31.0387 31.7863C31.398 32.1168 31.773 32.4 31.8668 32.4C31.9605 32.4 32.023 31.865 32.023 31.0153C32.023 29.7879 32.0699 29.5834 32.3511 29.3159C32.8667 28.8596 33.1479 28.0885 32.9761 27.6165C32.7886 27.1444 32.2261 26.7353 31.7574 26.7353C31.1949 26.7353 31.3356 26.4835 32.023 26.279C32.8667 26.0272 33.2729 25.3663 33.2729 24.2648C33.2729 23.5253 33.3198 23.4151 33.7729 23.069C35.429 21.8101 37.9757 20.9762 45.0064 19.3554C49.3655 18.3484 50.7717 17.9393 53.8339 16.8063C55.2245 16.3028 56.4275 15.8779 56.5056 15.8779C56.5837 15.8779 56.9118 16.2241 57.2556 16.6647C57.5993 17.0895 57.9118 17.4515 57.9586 17.4515C58.0055 17.4672 58.3336 17.7347 58.693 18.0494L59.3648 18.6316L57.9586 20.0635C56.7556 21.3066 56.4744 21.5112 55.9275 21.5898C55.4432 21.6528 55.0838 21.8731 54.3495 22.5497C52.1778 24.5796 49.428 25.9485 47.5375 25.9485C47.0532 25.9485 47.0219 25.98 47.1782 26.2632C47.6156 27.0972 49.053 27.2703 50.5217 26.6566L51.4591 26.279L49.9592 27.7266C48.5999 29.0484 48.4437 29.2687 48.0531 30.3387C47.8187 30.9681 47.6625 31.5346 47.7094 31.566C47.8187 31.6762 48.8499 31.3143 49.6936 30.8894C50.4904 30.496 50.7717 30.1813 51.9434 28.4976C52.7246 27.3647 53.1621 26.9871 52.7403 27.7896C52.4278 28.4347 52.1622 29.8037 52.2716 30.3387C52.3184 30.5904 52.5997 31.031 52.8965 31.3143L53.4277 31.8335V30.8894C53.4277 30.3859 53.5058 29.6463 53.5996 29.2529C53.7714 28.4976 54.8651 26.1688 56.0057 24.139C56.49 23.2421 56.7087 22.7071 56.7087 22.2665C56.7087 21.6056 57.1618 21.0076 58.8492 19.4498L59.6616 18.6945L60.4116 19.0722C62.7864 20.2838 66.4893 20.4097 70.0359 19.4341C71.3796 19.0565 74.145 18.0022 74.4887 17.7347C74.8012 17.4672 74.7074 17.6875 74.1137 18.5687C73.0826 20.1265 71.5983 23.4938 71.7545 23.9659C71.7858 24.0603 71.9733 23.6354 72.1764 23.0375C72.7232 21.3381 73.3482 20.0478 74.2856 18.6159C75.2074 17.2312 75.9105 16.5545 77.3791 15.6734L78.2697 15.1226L79.2384 15.516C80.7383 16.1297 82.5975 16.3972 84.6755 16.3028C86.2066 16.2398 86.7535 16.1297 88.4252 15.5947C90.4563 14.9495 92.2999 14.5247 93.7061 14.4145C94.1436 14.3831 94.5185 14.3673 94.5185 14.3831C94.5185 14.3988 94.0811 14.5876 93.5498 14.7765C91.8312 15.4059 90.2688 16.6175 89.6751 17.7662C89.2064 18.6788 87.4253 20.1894 86.4254 20.5041C86.1754 20.5985 85.9566 20.5198 85.6129 20.2366C84.8005 19.5443 83.9568 19.56 82.9256 20.3153C82.5194 20.6143 82.41 20.3625 82.785 19.9848C83.5662 19.1981 82.8944 17.9235 81.7226 17.9235C80.8008 17.9235 80.3008 17.6718 79.4884 16.7906L78.754 15.9881L78.6603 16.5703C78.4884 17.4357 78.6759 17.8763 79.5196 18.6945C80.332 19.4813 80.4883 19.859 80.0508 20.032C79.7696 20.1422 79.5196 20.0163 79.2384 19.6387C79.1446 19.4813 78.8009 19.2768 78.5197 19.1823C77.7229 18.9148 76.8479 19.2453 76.0355 20.0793C75.6761 20.4569 75.1449 20.9132 74.8637 21.102L74.3325 21.4325L74.7856 21.637C75.0355 21.7629 75.6136 22.1878 76.0823 22.5654C77.3948 23.6669 77.9885 23.6984 79.379 22.7228C80.6914 21.8101 80.8945 22.3766 79.6758 23.5568C78.9103 24.3121 78.8946 24.3278 78.8946 25.2876C78.8946 25.8226 78.9571 26.2632 79.0196 26.2632C79.0978 26.2632 79.3477 26.0429 79.6133 25.7754C80.3008 25.0359 81.2382 24.375 81.4726 24.4694C81.8163 24.611 82.7694 24.2334 83.035 23.8557C83.3631 23.3837 83.3318 22.7543 82.9569 22.2822C82.5975 21.8259 82.8162 21.5269 83.2381 21.9045C83.7224 22.3294 84.1755 22.3609 84.8942 22.0462C85.2692 21.8731 85.7067 21.5426 85.8473 21.3223C86.0035 21.102 86.5191 20.6929 87.0034 20.4412C87.4878 20.1737 88.1752 19.6859 88.519 19.3397L89.1752 18.726L89.1595 19.859C89.1283 22.6126 90.7375 24.5323 93.0499 24.5323C93.7686 24.5323 95.081 23.9501 95.5653 23.4151C97.0652 21.7629 96.3621 18.8676 94.3935 18.6001C93.1436 18.427 91.7062 19.5285 91.7062 20.6457C91.7062 21.5112 92.5343 22.4868 93.2686 22.4868C93.6436 22.4868 94.5342 21.9675 94.706 21.637C94.8779 21.3066 94.8779 21.3066 94.5029 21.6528C93.6436 22.4396 92.8311 22.4238 92.1906 21.6056C91.4719 20.6772 92.0031 19.4498 93.3624 18.9306C94.6123 18.4585 95.6903 19.0407 96.0965 20.4412C96.5496 21.9518 95.581 23.6669 94.0029 24.139C93.5655 24.2648 93.0655 24.375 92.8936 24.375C91.7375 24.375 90.4094 23.4623 89.8001 22.2665C89.347 21.3695 89.2377 19.4813 89.5814 18.4428C90.0657 16.9794 91.3938 15.7993 93.4249 15.0282C94.8154 14.509 95.7216 14.3988 96.784 14.6191C97.5964 14.7922 97.6902 14.8551 97.9089 15.3744C98.1589 16.0038 99.815 18.3956 99.9869 18.3956C100.159 18.3956 101.815 16.0038 102.065 15.3587C102.205 15.044 102.346 14.7765 102.377 14.7765C102.409 14.7765 102.815 14.7135 103.268 14.6191C105.674 14.1628 109.205 15.8622 110.189 17.955C111.549 20.866 109.814 24.375 107.002 24.375C105.861 24.375 104.393 23.4151 103.955 22.3766C103.471 21.2437 103.908 19.6072 104.862 19.025C105.502 18.6316 105.971 18.6316 106.799 19.0093C108.033 19.5757 108.471 20.7244 107.783 21.6056C107.143 22.4238 106.315 22.4396 105.502 21.6685C105.299 21.4797 105.143 21.401 105.143 21.5112C105.143 21.7315 105.924 22.2822 106.424 22.4081C107.283 22.6284 108.268 21.6685 108.268 20.6457C108.268 19.5285 106.83 18.427 105.58 18.6001C103.987 18.8204 103.065 21.0076 103.877 22.6126C104.268 23.3679 104.737 23.8085 105.611 24.2019C106.986 24.8313 108.424 24.5481 109.533 23.4309C110.439 22.5182 110.83 21.4325 110.814 19.859L110.799 18.726L111.455 19.3397C111.799 19.6859 112.486 20.1737 112.97 20.4412C113.455 20.6929 113.97 21.102 114.126 21.3223C114.267 21.5426 114.705 21.8731 115.08 22.0462C115.798 22.3609 116.251 22.3294 116.736 21.9045C117.158 21.5269 117.376 21.8259 117.017 22.2822C116.642 22.7543 116.611 23.3837 116.939 23.8557C117.204 24.2334 118.157 24.611 118.501 24.4694C118.736 24.375 119.673 25.0359 120.36 25.7754C120.626 26.0429 120.876 26.2632 120.954 26.2632C121.017 26.2632 121.079 25.8226 121.079 25.2876C121.079 24.3278 121.064 24.3121 120.298 23.5568C119.564 22.8329 119.36 22.4396 119.642 22.2665C119.767 22.1878 120.017 22.3451 121.22 23.1476C122.048 23.7141 122.829 23.5096 124.11 22.3609C124.438 22.0776 124.923 21.7315 125.188 21.6213L125.657 21.4168L125.282 21.2279C125.079 21.102 124.516 20.6457 124.048 20.2051C123.016 19.2138 122.267 18.9148 121.47 19.1823C121.173 19.2768 120.829 19.4813 120.735 19.6387C120.454 20.0163 120.204 20.1422 119.923 20.032C119.485 19.859 119.642 19.4813 120.454 18.6945C121.298 17.8763 121.485 17.4357 121.313 16.5703L121.22 15.9881L120.485 16.7906C119.673 17.6718 119.173 17.9235 118.251 17.9235C117.079 17.9235 116.408 19.1981 117.189 19.9848C117.564 20.3625 117.454 20.6143 117.048 20.3153C116.908 20.2051 116.533 20.0006 116.236 19.8747C115.611 19.5757 114.751 19.7645 114.283 20.2838C113.892 20.7244 113.627 20.6772 112.642 20.032C111.533 19.3082 110.658 18.4585 110.299 17.7662C109.705 16.6018 107.908 15.2328 106.283 14.6978C105.83 14.5562 105.455 14.4145 105.455 14.3831C105.455 14.2729 107.252 14.4775 108.346 14.7135C108.955 14.8394 110.205 15.1856 111.158 15.4845C112.095 15.7835 112.97 16.0353 113.111 16.0195C113.47 16.0038 111.361 15.2957 109.283 14.7293C107.643 14.2887 107.174 14.2257 105.533 14.2415C104.502 14.2572 103.393 14.3359 103.08 14.4303C102.393 14.6191 102.393 14.6034 102.69 13.2816L102.877 12.4948L103.971 12.2116C104.58 12.0543 105.908 11.8497 106.94 11.7553C110.908 11.3776 116.579 12.5578 120.548 14.5876L121.47 15.0597L120.845 15.3115C119.454 15.9094 118.236 16.0982 115.783 16.0982C114.376 16.114 113.627 16.1612 113.986 16.2241C115.845 16.5545 119.001 16.2241 120.735 15.516L121.704 15.1226L122.595 15.6734C124.063 16.5545 124.766 17.2312 125.673 18.6001C126.594 20.0006 127.235 21.3223 127.782 23.006C127.985 23.604 128.172 24.0446 128.219 24.0131C128.329 23.8872 127.516 21.6056 126.954 20.4726C126.657 19.8904 126.173 19.0407 125.86 18.5687C125.548 18.1123 125.298 17.719 125.298 17.6875C125.298 17.656 125.657 17.8134 126.11 18.0337C127.501 18.7103 130.453 19.6229 132.094 19.9062C134.75 20.3468 137.703 20.0163 139.562 19.0722C139.984 18.8676 140.359 18.7103 140.39 18.7418C140.421 18.7732 141.078 19.4184 141.859 20.2051C143.156 21.4954 143.265 21.637 143.171 22.0934C143.093 22.5182 143.281 22.9273 144.265 24.6897C145.952 27.6794 146.405 28.8753 146.515 30.4803L146.593 31.7863L147.093 31.2985C147.374 31.0153 147.655 30.5904 147.702 30.3387C147.812 29.8037 147.546 28.4347 147.233 27.7896C146.812 26.9871 147.249 27.3647 148.03 28.4976C149.311 30.3859 149.702 30.7478 151.014 31.2356C151.655 31.4716 152.218 31.629 152.264 31.5818C152.374 31.4559 151.718 29.7565 151.311 29.0956C151.124 28.7966 150.421 28.0571 149.765 27.4591C149.108 26.8612 148.593 26.3576 148.624 26.3262C148.655 26.2947 148.983 26.4048 149.358 26.5937C150.733 27.2703 152.343 27.1129 152.796 26.2632C152.952 25.98 152.921 25.9485 152.436 25.9485C152.155 25.9485 151.499 25.8384 150.999 25.7125C149.108 25.209 147.468 24.2648 145.702 22.6284C144.89 21.8731 144.531 21.6528 144.046 21.5898C143.499 21.5112 143.218 21.2909 142.015 20.0635L140.609 18.6316L141.281 18.0494C141.64 17.7347 141.968 17.4672 142.015 17.4515C142.062 17.4515 142.374 17.0895 142.718 16.6647C143.062 16.2241 143.39 15.8779 143.468 15.8779C143.546 15.8779 144.749 16.3028 146.14 16.8063C149.202 17.9393 150.608 18.3484 154.967 19.3554C162.029 20.9762 164.545 21.8101 166.201 23.0847C166.654 23.4309 166.701 23.5568 166.701 24.2806C166.701 25.3663 167.107 26.0272 167.951 26.279C168.638 26.4835 168.779 26.7353 168.216 26.7353C167.748 26.7353 167.185 27.1444 167.013 27.6165C166.841 28.0728 167.029 28.6393 167.56 29.2844C167.904 29.6935 167.951 29.8981 167.951 31.0782C167.951 31.8021 168.013 32.4 168.091 32.4C168.357 32.4 169.201 31.5975 169.451 31.1254C169.607 30.8265 169.669 30.3229 169.638 29.6778C169.591 28.7966 169.623 28.7022 169.888 28.7022C170.138 28.7022 170.232 28.8753 170.372 29.6463C170.685 31.3615 171.06 31.6762 172.95 31.8178C173.591 31.865 174.294 31.9594 174.497 32.0223C174.825 32.1168 174.857 32.101 174.747 31.8335C174.685 31.6762 174.591 30.9366 174.56 30.1971C174.497 29.1743 174.403 28.7337 174.153 28.356C173.747 27.7423 173.575 27.6637 172.56 27.5378C171.857 27.4591 171.779 27.4119 171.779 27.05C171.779 26.6723 171.81 26.6566 173.075 26.5779C174.31 26.4993 174.403 26.4678 174.841 25.98C175.091 25.6968 175.294 25.4135 175.294 25.3191C175.294 25.2404 174.841 25.2247 174.247 25.2719C173.2 25.3506 173.169 25.3348 172.232 24.7054C171.7 24.3435 171.091 24.0603 170.888 24.0603C170.388 24.0603 169.826 24.674 169.826 25.209C169.826 25.4765 169.748 25.6338 169.591 25.6338C169.451 25.6338 169.357 25.4922 169.357 25.2562C169.357 24.2491 168.529 23.4309 167.513 23.4309C167.185 23.4309 166.701 23.2106 166.076 22.7857C164.888 21.9675 163.482 21.3695 161.154 20.7087L159.342 20.1737L161.654 20.0793C165.279 19.9219 167.513 19.2295 168.779 17.8763L169.357 17.2469L171.232 17.42L173.107 17.6088L174.153 18.3641C174.935 18.9148 175.247 19.261 175.356 19.6387C175.45 19.9848 175.95 20.5513 176.919 21.4325C179.919 24.1547 180.981 25.445 181.419 26.8454C181.528 27.2231 181.669 27.5221 181.731 27.5221C181.919 27.5221 182.325 26.6251 182.325 26.2003C182.325 25.6023 182.059 25.0044 181.34 24.0603C180.715 23.2263 180.715 23.2106 181.153 23.4938C181.419 23.6512 182.09 24.1232 182.653 24.5481C183.215 24.9572 183.871 25.3821 184.106 25.4765C184.621 25.6653 187.012 25.6968 187.012 25.4922C187.012 25.4293 186.59 24.91 186.074 24.3435C185.246 23.4309 184.965 23.2421 183.575 22.6441C182.715 22.2822 181.981 21.936 181.95 21.8731C181.919 21.8259 182.309 21.8101 182.84 21.8259C184.012 21.9045 184.809 21.6685 185.356 21.1335C185.887 20.5985 185.918 20.0478 185.418 20.1894C184.45 20.4726 183.09 20.5985 182.168 20.5041C180.95 20.3782 178.825 19.7803 177.638 19.2453C177.028 18.962 176.575 18.8676 175.997 18.8991C175.31 18.9306 175.122 18.8676 174.403 18.3326C173.95 18.0022 173.575 17.7032 173.575 17.656C173.575 17.6245 173.872 17.6245 174.247 17.6875C175.481 17.8448 181.606 18.2225 186.278 18.4113C189.793 18.5529 190.98 18.5529 191.105 18.427C191.246 18.2854 190.527 18.2382 188.168 18.2382C183.918 18.2225 172.232 17.5144 172.669 17.2941C172.779 17.2312 173.747 17.121 174.825 17.0738C179.762 16.7906 184.137 15.8622 185.856 14.7293C187.356 13.7222 187.777 12.306 186.871 11.2832C186.481 10.8426 186.309 10.764 185.746 10.7797C185.2 10.7954 184.996 10.9056 184.637 11.299C184.09 11.9126 184.075 12.4634 184.606 12.9826C184.903 13.2973 185.09 13.3603 185.418 13.2816C186.324 13.0613 186.637 12.3847 186.074 11.8654C185.746 11.5665 184.981 11.6451 184.981 11.9756C184.981 12.1172 185.028 12.1172 185.168 11.9756C185.45 11.6923 185.887 11.7553 186.074 12.0857C186.293 12.5106 186.121 12.841 185.574 13.0298C185.168 13.1715 185.059 13.14 184.715 12.7938C183.996 12.07 184.621 11 185.778 11C186.762 11 187.324 11.8025 187.106 12.9354C186.996 13.5491 186.121 14.446 185.184 14.9181C183.012 16.0038 178.169 16.7906 171.794 17.0738C169.388 17.184 169.31 17.184 169.435 16.885C169.669 16.3028 169.701 14.9181 169.498 14.1943C169.248 13.2973 168.263 12.2273 167.404 11.9441C165.685 11.3776 163.732 12.2588 159.904 15.3587L159.28 15.8622L157.717 15.6419C154.905 15.2328 153.342 14.9023 153.233 14.7293C152.983 14.3359 153.108 13.0141 153.436 12.4162C154.358 10.7797 156.905 10.7482 157.577 12.369C157.873 13.0456 157.764 13.8323 157.327 14.2257C157.17 14.3673 156.717 14.5404 156.327 14.5719C155.733 14.6506 155.577 14.6034 155.233 14.2572C155.014 14.0369 154.827 13.675 154.827 13.4547C154.827 12.9669 155.545 12.369 156.03 12.4634C156.233 12.4948 156.389 12.4634 156.389 12.4004C156.389 12.0857 155.42 12.2745 155.061 12.6522C154.217 13.4862 154.827 14.7765 156.092 14.7765C158.061 14.7765 158.608 12.7623 157.014 11.4091C156.342 10.8584 154.967 10.8269 154.186 11.3619C153.296 11.9598 152.952 12.6365 152.952 13.7694C152.952 14.6191 152.905 14.7765 152.686 14.7765C151.968 14.7607 149.39 14.0684 147.093 13.2659L144.546 12.3847L144.484 11.3462C144.359 9.19043 142.718 6.79866 140.625 5.76013C139.718 5.31955 139.453 5.2566 138.265 5.2566C137.062 5.2566 136.844 5.30381 135.984 5.77587C135.094 6.26366 133.75 7.44381 133.906 7.60116C133.938 7.63263 134.422 7.38087 134.984 7.05043C136.25 6.2794 136.984 6.04337 138.265 6.0591C140.047 6.0591 141.468 7.09763 142.484 9.11175C142.999 10.1188 143.484 11.9441 143.249 11.9441C143.171 11.9441 142.015 11.6294 140.687 11.236C135.875 9.83558 130.344 8.57675 127.032 8.13616C125.813 7.97881 125.563 7.90013 125.454 7.63263C125.376 7.44381 125.204 6.97175 125.063 6.56263C124.719 5.57131 123.548 4.28102 122.563 3.82469C120.079 2.64454 116.954 4.15513 116.486 6.76719L116.392 7.33366L114.408 7.44381C110.736 7.63263 106.768 8.43513 104.049 9.50513C103.268 9.81984 102.612 10.0559 102.596 10.0244C102.58 10.0087 102.393 9.63102 102.19 9.2219C101.846 8.52955 100.299 6.90881 99.9869 6.90881C99.6744 6.90881 98.1276 8.52955 97.7839 9.2219C97.5808 9.63102 97.3933 10.0087 97.3777 10.0401C97.3621 10.0716 96.8621 9.89852 96.284 9.66249C93.1436 8.40366 89.5501 7.64837 85.566 7.44381L83.5974 7.33366L83.4256 6.57837C83.3318 6.16925 83.1443 5.69719 83.0194 5.53984C82.8475 5.30381 82.8475 5.36675 83.035 5.83881C83.16 6.16925 83.2693 6.62558 83.2693 6.87734V7.33366L80.7383 7.41234C79.3321 7.45955 78.1759 7.47528 78.1447 7.45955C78.0197 7.3494 78.6134 6.42102 78.9259 6.26366C79.379 6.0119 80.4102 6.18499 80.9726 6.5941C81.2226 6.79866 81.4101 6.8616 81.3632 6.75146C81.2539 6.42102 80.2695 5.96469 79.6602 5.96469C79.0196 5.96469 78.3791 6.38955 78.0353 7.06616C77.801 7.53822 77.5979 7.60116 75.7386 7.78999L74.7074 7.8844L74.8481 7.22352C75.0824 6.21646 75.5355 5.42969 76.3011 4.75307C77.9572 3.28969 80.5039 3.24249 82.1757 4.65866C82.6912 5.08352 82.7694 5.11499 82.4881 4.80028C81.7226 3.93484 80.832 3.55719 79.4571 3.49425C78.3634 3.43131 78.0822 3.47852 77.4104 3.80896ZM122.048 3.76175C123.345 4.12366 124.813 5.82307 125.157 7.33366L125.266 7.8844L124.235 7.78999C122.376 7.60116 122.173 7.53822 121.938 7.06616C121.595 6.38955 120.954 5.96469 120.314 5.96469C119.704 5.96469 118.72 6.42102 118.611 6.75146C118.564 6.8616 118.751 6.79866 119.001 6.5941C119.564 6.18499 120.595 6.0119 121.048 6.26366C121.36 6.42102 121.954 7.3494 121.829 7.45955C121.798 7.47528 120.626 7.45955 119.22 7.41234L116.673 7.33366L116.751 6.64131C116.986 4.54852 119.657 3.10087 122.048 3.76175ZM101.034 7.97881C101.456 8.40366 101.924 9.03308 102.096 9.41072L102.393 10.0873L102.049 10.3391C101.862 10.4965 101.315 10.8112 100.846 11.0629L99.9869 11.5035L99.1276 11.0629C98.6589 10.8112 98.112 10.4965 97.9245 10.3391L97.5808 10.0873L97.8777 9.41072C98.2526 8.60822 99.565 7.22352 99.9869 7.22352C100.143 7.22352 100.627 7.56969 101.034 7.97881ZM83.2381 8.04175C83.1912 8.62396 83.4724 8.52955 80.0664 9.03308C78.4572 9.26911 78.3478 9.26911 78.1603 9.01734C78.051 8.85999 77.9572 8.51381 77.9572 8.23058C77.9572 7.71131 77.9572 7.71131 78.8634 7.64837C79.3477 7.6169 80.5508 7.58543 81.5195 7.56969L83.285 7.53822L83.2381 8.04175ZM88.8939 7.94734C91.8781 8.34072 91.7375 8.40366 87.8315 8.4194C85.8004 8.43513 83.9724 8.48234 83.7849 8.54528C83.4881 8.63969 83.4256 8.60822 83.4256 8.34072C83.4256 7.52249 83.5037 7.49102 85.3317 7.60116C86.2847 7.64837 87.8784 7.80572 88.8939 7.94734ZM116.454 7.78999C116.501 7.9316 116.548 8.18337 116.548 8.34072C116.548 8.60822 116.486 8.63969 116.204 8.54528C116.001 8.48234 114.173 8.43513 112.142 8.4194C108.221 8.40366 108.064 8.32499 111.22 7.9316C115.126 7.45955 116.314 7.42808 116.454 7.78999ZM120.735 7.64837L122.017 7.74278V8.24631C122.017 8.51381 121.923 8.85999 121.813 9.01734C121.626 9.26911 121.517 9.26911 119.907 9.03308C116.501 8.52955 116.783 8.62396 116.736 8.04175L116.689 7.53822H118.064C118.814 7.53822 120.017 7.58543 120.735 7.64837ZM77.801 8.30925C77.801 8.65543 77.8791 8.98587 77.9572 9.03308C78.051 9.08028 78.1135 9.17469 78.1135 9.23763C78.1135 9.37925 75.0043 9.96146 74.8949 9.85131C74.8481 9.80411 74.7699 9.37925 74.7231 8.90719L74.6293 8.04175L76.098 7.90013C76.9104 7.80572 77.6135 7.72705 77.6916 7.71131C77.7541 7.71131 77.801 7.97881 77.801 8.30925ZM124.032 7.9316L125.344 8.04175L125.251 8.90719C125.204 9.37925 125.126 9.80411 125.079 9.85131C124.969 9.96146 121.86 9.37925 121.86 9.23763C121.86 9.17469 121.938 9.08028 122.017 9.03308C122.11 8.98587 122.173 8.65543 122.173 8.30925C122.173 7.77425 122.22 7.67984 122.454 7.75852C122.595 7.78999 123.313 7.8844 124.032 7.9316ZM74.5668 9.06455C74.6137 9.56808 74.645 9.99293 74.6137 10.0087C74.5981 10.0401 73.7075 10.2762 72.6295 10.5437C68.6766 11.5193 62.927 13.2973 58.6461 14.8551L57.1618 15.4059L56.9275 14.8394C56.8025 14.5247 56.6462 13.8323 56.5994 13.2973L56.5056 12.306L57.5056 11.9756C62.0833 10.4807 71.6608 8.27778 73.9887 8.18337C74.4731 8.16763 74.4731 8.18337 74.5668 9.06455ZM128.485 8.56102C132.985 9.33205 138.547 10.6853 142.468 11.9756L143.468 12.306L143.374 13.2973C143.328 13.8323 143.171 14.5247 143.046 14.8394L142.812 15.4059L141.328 14.8551C137.047 13.2973 131.297 11.5193 127.344 10.5437C126.266 10.2762 125.376 10.0401 125.36 10.0087C125.329 9.99293 125.36 9.56808 125.407 9.06455C125.516 7.99455 125.298 8.02602 128.485 8.56102ZM91.55 8.67116C92.9093 8.6869 93.8779 8.92293 95.8778 9.69396L97.3308 10.2604L97.2371 10.9056C97.1746 11.2518 97.1121 11.5665 97.0965 11.5979C97.0808 11.6137 96.8152 11.535 96.5184 11.4091C95.3153 10.8898 92.878 10.5279 90.7219 10.5279C86.3629 10.5279 82.285 11.6766 78.5197 13.9582L77.5822 14.5247L76.926 13.7694C76.2386 13.0141 74.9262 10.6223 75.0355 10.3076C75.1137 10.0873 78.2541 9.44219 78.3791 9.63102C78.5665 9.92999 80.0977 10.5279 80.6914 10.5279C81.582 10.5279 82.535 10.0401 82.9412 9.37925C83.2537 8.85999 83.3475 8.81278 84.2536 8.73411C86.0191 8.56102 87.0816 8.52955 88.7377 8.57675C89.6439 8.60822 90.9094 8.65543 91.55 8.67116ZM115.798 8.73411C116.611 8.81278 116.72 8.87572 117.033 9.37925C117.439 10.0401 118.392 10.5279 119.282 10.5279C119.876 10.5279 121.407 9.92999 121.595 9.63102C121.72 9.44219 124.86 10.0873 124.938 10.3076C125.048 10.6223 123.735 13.0141 123.048 13.7694L122.392 14.5247L121.454 13.9582C119.095 12.5263 116.767 11.5979 114.033 10.9685C112.611 10.6538 112.017 10.6066 109.205 10.6223C106.252 10.6381 105.893 10.6695 104.674 11.0315C103.94 11.2518 103.221 11.472 103.08 11.5507C102.862 11.6451 102.799 11.5822 102.799 11.299C102.799 11.0944 102.752 10.7797 102.705 10.5909C102.627 10.3076 102.784 10.1975 104.08 9.70969C106.283 8.85999 107.127 8.67116 109.142 8.65543C110.158 8.63969 111.033 8.59249 111.08 8.54528C111.158 8.45087 114.22 8.57675 115.798 8.73411ZM82.9569 8.97013C82.9569 9.06455 82.7225 9.37925 82.4413 9.66249C81.8007 10.3076 80.9882 10.4965 79.9883 10.229C79.2696 10.0401 78.504 9.61528 78.629 9.4894C78.6915 9.42646 82.1913 8.84425 82.7694 8.81278C82.8631 8.79705 82.9569 8.87572 82.9569 8.97013ZM119.829 9.20616C120.626 9.33205 121.329 9.45793 121.36 9.50513C121.47 9.61528 120.673 10.0401 119.985 10.229C118.986 10.4965 118.173 10.3076 117.533 9.66249C117.251 9.37925 117.017 9.06455 117.017 8.97013C117.017 8.78131 117.111 8.79705 119.829 9.20616ZM75.0512 11C75.3949 11.9441 76.3011 13.4075 76.9885 14.0998L77.4885 14.6034L76.5511 15.5003C76.0355 15.9881 75.5824 16.5073 75.5355 16.6647C75.4261 16.9951 74.0981 17.7347 72.4107 18.3956C68.786 19.796 64.2551 19.9219 61.0053 18.6945L60.0991 18.3484L60.4741 18.0494C61.2865 17.4043 65.3175 14.7607 66.7861 13.911C69.6609 12.2431 73.8013 10.3076 74.6918 10.229C74.7387 10.2132 74.8949 10.5751 75.0512 11ZM127.016 10.8112C128.313 11.3147 131.219 12.7781 133.203 13.911C134.656 14.7607 138.672 17.3885 139.5 18.0494L139.875 18.3484L138.968 18.6945C135.734 19.9219 131.172 19.796 127.563 18.3956C125.876 17.7347 124.548 16.9951 124.438 16.6647C124.391 16.5073 123.938 15.9881 123.423 15.5003L122.485 14.6034L122.985 14.0998C123.673 13.4075 124.579 11.9441 124.923 11C125.235 10.1031 125.235 10.1031 127.016 10.8112ZM99.3932 11.4091L99.9556 11.771L101.174 11.0787C102.487 10.3234 102.643 10.3391 102.643 11.2518C102.643 11.6609 102.549 11.7868 102.174 11.9441C101.909 12.0543 101.315 12.3847 100.846 12.6679L99.9869 13.1872L99.1276 12.6679C98.6589 12.3847 98.0651 12.0543 97.7995 11.9441C97.4402 11.7868 97.3308 11.6451 97.3308 11.3147C97.3308 10.4178 97.4402 10.3391 98.1589 10.7168C98.5182 10.8898 99.0651 11.2045 99.3932 11.4091ZM72.0201 10.937C72.0201 10.9843 71.7702 11.1259 71.4577 11.2518C69.4266 12.1172 63.8801 15.3587 61.5209 17.0738L59.9429 18.2225L59.271 17.7662C58.5367 17.2469 57.3337 15.9409 57.3337 15.6419C57.3337 15.3587 67.8798 11.8969 71.6295 10.9528C71.8014 10.9213 71.9576 10.8741 71.9889 10.8584C72.0045 10.8584 72.0201 10.8741 72.0201 10.937ZM131.938 11.9598C134.859 12.7938 142.64 15.4688 142.64 15.6419C142.64 15.9409 141.437 17.2469 140.703 17.7662L140.031 18.2225L138.453 17.0738C136.094 15.3587 130.547 12.1172 128.516 11.2518C127.172 10.6853 128.375 10.937 131.938 11.9598ZM93.628 11.8025C94.3935 11.8969 95.4872 12.0857 96.0497 12.2273L97.0965 12.4948L97.284 13.2816C97.5808 14.6034 97.5808 14.6191 96.909 14.4145C95.9872 14.147 93.0499 14.21 91.55 14.5247C90.8313 14.682 89.347 15.1069 88.269 15.4531C86.3472 16.0825 86.2847 16.0982 84.0505 16.0982C81.7538 16.0982 80.4414 15.8937 79.0978 15.3115L78.504 15.0597L79.4415 14.5876C81.8007 13.376 85.5035 12.2588 88.4565 11.8654C90.5188 11.6137 91.9093 11.5822 93.628 11.8025ZM35.1478 12.3532C36.1321 12.6679 37.0851 13.2501 38.8038 14.6191C39.71 15.3272 40.2099 15.8307 40.1005 15.8937C39.9912 15.9409 39.4912 16.0353 38.9756 16.0982C38.46 16.1612 36.6008 16.3815 34.8353 16.6018C30.695 17.0895 30.8356 17.0895 30.6325 16.4916C30.1481 15.0597 30.7106 13.2816 31.9136 12.4948C32.7573 11.9441 33.726 11.9126 35.1478 12.3532ZM167.451 12.1959C169.076 12.8725 169.919 14.8079 169.341 16.4916C169.138 17.0895 169.279 17.0895 165.138 16.6018C163.373 16.3815 161.514 16.1612 160.998 16.0982C160.483 16.0353 159.967 15.9409 159.858 15.8937C159.733 15.815 160.108 15.4216 160.967 14.745C162.561 13.4547 163.56 12.841 164.763 12.3375C165.842 11.8969 166.638 11.8497 167.451 12.1959ZM56.3338 15.4216C56.3963 15.6104 55.8807 15.8622 53.7871 16.6332C50.631 17.7819 49.9436 17.9865 45.6158 19.0407L42.2566 19.8432L39.2881 19.859C35.304 19.859 33.1635 19.3712 31.7418 18.1438C30.8043 17.3413 30.8668 17.1997 32.3042 17.0581C32.9604 16.9951 35.1165 16.7591 37.0695 16.5073L40.6474 16.0668L41.3973 16.5073C42.3035 17.0423 43.4284 17.4515 44.0065 17.4515C44.9752 17.4515 45.9908 16.6804 46.7876 15.3429C46.8969 15.1541 47.5219 14.9495 48.6624 14.6978C49.6155 14.4932 51.506 13.9425 52.8809 13.4704L55.3807 12.6207L55.8182 13.8953C56.0525 14.6034 56.2869 15.28 56.3338 15.4216ZM151.28 14.6978C153.092 15.0597 153.077 15.0597 153.405 15.6891C153.921 16.6962 155.03 17.4515 155.983 17.4515C156.561 17.4515 157.764 17.0109 158.592 16.5073L159.326 16.0668L162.889 16.5073C164.857 16.7591 167.013 16.9951 167.685 17.0581C169.107 17.1997 169.169 17.3413 168.232 18.1438C166.81 19.3869 164.67 19.859 160.686 19.859C157.811 19.8432 157.639 19.8275 155.374 19.2768C154.092 18.962 152.577 18.5844 152.014 18.4585C150.155 18.0022 148.843 17.5931 146.187 16.6332C144.077 15.8622 143.578 15.6262 143.64 15.4216C143.687 15.28 143.921 14.6034 144.156 13.8953L144.577 12.6207L147.296 13.5334C148.78 14.0369 150.577 14.5562 151.28 14.6978ZM98.8776 13.2973L99.9869 13.8481L101.096 13.2973C102.19 12.7466 102.643 12.605 102.643 12.841C102.643 12.9197 102.549 13.3131 102.44 13.7379C102.221 14.5719 102.237 14.5562 100.893 15.1541L99.9869 15.5475L99.0963 15.1541C97.737 14.5562 97.7527 14.5719 97.5339 13.7379C97.4246 13.3131 97.3308 12.9197 97.3308 12.841C97.3308 12.605 97.7839 12.7466 98.8776 13.2973ZM99.3151 15.4059C99.9556 15.6891 99.9713 15.6891 100.924 15.2957C101.456 15.0912 101.924 14.9495 101.971 14.981C102.143 15.1698 100.284 18.0809 99.9869 18.0809C99.7525 18.0809 97.9558 15.4059 97.9558 15.044C97.9558 14.8866 98.3932 15.0125 99.3151 15.4059ZM46.5532 15.2957C46.5532 15.7206 45.4595 16.8063 44.7565 17.0581C44.1628 17.2941 43.944 17.3098 43.3191 17.1368C42.5222 16.9479 41.038 16.1926 41.163 16.0668C41.2255 16.0038 43.6315 15.5632 46.4438 15.1069C46.5063 15.1069 46.5532 15.1856 46.5532 15.2957ZM156.077 15.5632C159.233 16.051 159.092 15.9881 158.342 16.4444C156.577 17.5301 155.249 17.4672 154.092 16.2556C153.389 15.5318 153.202 15.0125 153.702 15.1541C153.842 15.1856 154.92 15.3744 156.077 15.5632Z" fill="#284135"/>
<path d="M13.4927 10.9367C12.1489 11.5977 12.4146 13.5961 13.977 14.6347C15.3832 15.5789 18.8988 16.523 21.7112 16.7276C22.6487 16.8063 22.4925 16.7591 20.93 16.5073C16.9301 15.8779 14.5083 15.0439 13.4302 13.9109C12.9458 13.4073 12.8833 13.2499 12.8833 12.4789C12.8833 11.7393 12.9458 11.5504 13.2583 11.2987C13.6645 10.9682 14.5239 10.9053 15.0082 11.1728C15.477 11.4088 15.6645 12.0697 15.4457 12.6048C15.3051 12.9667 15.1645 13.0454 14.7583 13.0454C14.4614 13.0454 14.1176 12.9352 13.9926 12.7936C13.6958 12.5103 13.6958 12.4789 13.8989 12.0855C14.0864 11.755 14.5239 11.6921 14.8051 11.9753C14.9457 12.1169 14.9926 12.1169 14.9926 11.9753C14.9926 11.6449 14.227 11.5662 13.8989 11.8652C13.3364 12.3845 13.6489 13.0611 14.5551 13.2814C14.8832 13.3601 15.0707 13.2971 15.3676 12.9824C15.8989 12.4631 15.8832 11.9124 15.352 11.3301C14.8051 10.7479 14.1333 10.6063 13.4927 10.9367Z" fill="#284135"/>
<path d="M4.88476 14.7291C4.77539 14.7763 4.68164 15.0123 4.68164 15.2641C4.68164 16.46 5.99411 17.7189 7.54095 18.0022C8.02532 18.0966 8.11907 18.0651 8.11907 17.8605C8.11907 17.5458 7.58783 16.46 7.11909 15.8306C6.58785 15.1067 5.40038 14.5245 4.88476 14.7291Z" fill="#284135"/>
<path d="M193.652 15.091C193.402 15.2484 193.058 15.5631 192.902 15.7519C192.449 16.3184 191.683 18.0022 191.855 18.0494C191.933 18.0809 192.386 17.9865 192.87 17.8606C194.245 17.4514 195.292 16.3342 195.292 15.2484C195.292 14.8078 195.261 14.7763 194.714 14.7763C194.386 14.7763 193.917 14.9179 193.652 15.091Z" fill="#284135"/>
<path d="M1.13448 17.6244C0.275119 17.8762 -0.209245 18.7889 0.0876235 19.5757C0.228245 19.9534 0.993854 20.2838 1.68134 20.2838C2.83756 20.2838 5.88437 19.0564 5.82187 18.6316C5.79063 18.3955 3.47818 17.6402 2.49382 17.5458C2.02508 17.4986 1.41572 17.53 1.13448 17.6244Z" fill="#284135"/>
<path d="M196.902 17.6244C195.933 17.7818 194.183 18.427 194.152 18.6316C194.074 19.0564 197.152 20.2838 198.292 20.2838C198.98 20.2838 199.745 19.9534 199.886 19.5757C200.23 18.663 199.777 17.829 198.808 17.6087C198.089 17.4356 198.011 17.4356 196.902 17.6244Z" fill="#284135"/>
<path d="M7.05567 19.2766C6.13382 19.7329 5.57133 20.3938 5.33696 21.2751C5.16509 21.9202 5.32134 22.6441 5.61821 22.6441C6.0557 22.6441 6.86818 22.1405 7.24317 21.6527C7.71191 21.039 8.2744 19.6857 8.2744 19.1822C8.2744 18.773 8.0244 18.7888 7.05567 19.2766Z" fill="#284135"/>
<path d="M191.699 19.1822C191.699 19.7172 192.309 21.1335 192.793 21.7315C193.309 22.3452 194.277 22.7858 194.543 22.5183C195.027 22.0304 194.512 20.3939 193.684 19.7644C192.543 18.899 191.699 18.6472 191.699 19.1822Z" fill="#284135"/>
<path d="M127.312 24.7682C125.625 25.3661 124.516 26.3733 124.516 27.3174C124.516 27.9626 124.937 28.12 125.859 27.758C126.672 27.4433 127.344 26.7037 127.719 25.7438C128.094 24.7367 128.016 24.5321 127.312 24.7682Z" fill="#284135"/>
<path d="M70.0673 24.9728C68.9424 25.4448 68.2705 25.9641 67.9424 26.6093C67.4893 27.5063 67.583 27.8997 68.2705 27.9626C69.1611 28.0413 70.1611 27.286 70.7548 26.09C71.0205 25.555 71.2392 25.02 71.2392 24.8941C71.2392 24.6266 70.833 24.6423 70.0673 24.9728Z" fill="#284135"/>
<path d="M72.0195 24.957C72.0195 25.3976 72.7226 26.7824 73.1289 27.1601C73.6601 27.6479 74.6445 28.0413 75.082 27.9312C75.5507 27.8053 75.582 27.1758 75.1601 26.4834C74.4414 25.3032 72.0195 24.1388 72.0195 24.957Z" fill="#284135"/>
<path d="M128.829 25.1144C129.048 26.0429 129.688 27.05 130.282 27.4591C131.063 27.9784 132.126 28.1515 132.266 27.7738C132.563 26.987 131.251 25.4134 129.907 24.9413C128.845 24.5794 128.704 24.6109 128.829 25.1144Z" fill="#284135"/>
<path d="M71.0986 27.8365C70.583 28.938 70.1455 30.4802 70.1455 31.1568C70.1455 32.7776 71.7861 33.6431 72.5986 32.4314C73.1611 31.5817 72.8173 29.1426 71.8642 27.3644L71.583 26.8137L71.0986 27.8365Z" fill="#284135"/>
<path d="M127.844 27.9309C126.453 31.0781 127.031 33.6274 128.953 32.8091C129.985 32.3685 130.063 30.9051 129.188 28.6233C128.453 26.6878 128.406 26.672 127.844 27.9309Z" fill="#284135"/>
</svg>
