<svg width="60" height="41" viewBox="0 0 60 41" fill="none" xmlns="http://www.w3.org/2000/svg">
<path d="M28.7059 32.6317C29.6409 32.6317 30.5597 32.5346 31.4463 32.3404C33.8965 31.8224 35.976 30.5599 37.459 28.6984C39.5385 26.0924 40.1672 22.6609 39.1516 19.278C38.394 16.7044 36.8303 14.7134 34.7831 13.6775C33.0583 12.8035 30.8821 12.3179 28.6737 12.3179C24.4986 12.3179 21.0973 13.9851 19.5659 16.7853C17.8733 19.8445 17.4381 23.1951 18.3408 25.9468C19.6949 30.0095 23.7571 32.6317 28.7059 32.6317ZM20.6782 17.4004C21.9839 15.021 24.9822 13.5966 28.6737 13.5966C30.6887 13.5966 32.6553 14.0336 34.2189 14.8268C35.9599 15.7008 37.2817 17.4166 37.9426 19.6503C38.8292 22.6286 38.2973 25.6392 36.4757 27.9053C35.17 29.5401 33.3323 30.6408 31.1884 31.1102C30.3824 31.2883 29.5603 31.3692 28.722 31.3692C25.3852 31.3692 20.9845 29.8477 19.5659 25.5421C18.7438 23.1303 19.1629 20.1521 20.6782 17.4004Z" fill="#284135"/>
<path d="M16.4068 36.8077C19.7758 39.5108 24.1443 40.9999 28.7224 40.9999C33.4616 40.9999 37.9591 39.4137 41.4087 36.5487C45.342 33.2791 47.9051 28.0832 48.2597 22.677C48.3726 20.9451 48.2597 19.2617 47.9212 17.6431C45.9707 8.48158 36.5244 3.52856 28.6257 3.52856C26.6751 3.52856 24.7891 3.80373 23.0159 4.35407C16.6969 6.3288 11.9254 12.0426 10.5713 19.2779C9.24951 26.2542 11.4418 32.7935 16.4068 36.8077ZM11.8126 19.5207C13.0861 12.7548 17.519 7.41329 23.3867 5.58423C25.0309 5.06627 26.8041 4.80728 28.6257 4.80728C36.0247 4.80728 44.8745 9.40421 46.68 17.9182C47.0024 19.4074 47.0991 20.9936 46.9862 22.5961C46.6477 27.6624 44.2459 32.5183 40.5866 35.5775C37.3788 38.2483 33.1554 39.7212 28.7224 39.7212C24.4345 39.7212 20.34 38.3292 17.1966 35.8041C12.6025 32.0975 10.5875 26.0114 11.8126 19.5207Z" fill="#284135"/>
<path d="M2.67147 16.1215C2.71983 16.3966 2.75207 16.6556 2.80043 16.9308C3.09059 18.598 3.23566 20.2976 3.23566 21.9971C3.23566 24.9107 2.92939 32.8258 2.76819 35.9983C2.73595 36.5001 2.71983 37.0828 2.83267 37.6493C3.15506 39.1223 4.05778 39.2841 4.42854 39.2841C5.39573 39.2841 6.39517 38.2806 6.65309 37.0504C6.89488 35.9336 6.84652 34.752 6.79816 33.6189C6.78204 33.3437 6.78205 33.0848 6.76593 32.8258C6.74981 31.9355 6.70144 30.8672 6.65309 29.6533C6.44353 24.765 6.16949 18.0477 7.02384 14.6485C7.21728 13.8878 7.50744 13.1756 7.81372 12.4148C8.15224 11.5893 8.50688 10.7152 8.71643 9.80881C8.87763 9.12898 8.95823 8.41678 8.97435 7.68839C8.99047 6.63628 8.84539 5.58417 8.55524 4.58062C8.18448 3.31808 7.0722 0.404541 4.83154 0.404541C4.60586 0.404541 4.36406 0.436915 4.12226 0.50166C3.86434 0.582592 3.60642 0.663523 3.38074 0.776827C1.88159 1.47284 0.849917 2.92961 0.317959 5.08239C-0.375197 7.88263 0.0600411 10.3591 1.67203 12.8518C2.31683 13.823 2.47803 14.9399 2.67147 16.1215ZM1.55919 5.37375C1.99443 3.60944 2.78431 2.44402 3.92882 1.92606C4.10614 1.84513 4.28346 1.78038 4.49302 1.71564C4.62198 1.68326 4.73482 1.66708 4.84766 1.66708C5.97605 1.66708 6.911 3.43139 7.34624 4.93672C7.60416 5.81078 7.73312 6.7334 7.717 7.67221C7.70088 8.30348 7.6364 8.91856 7.49132 9.51745C7.29788 10.3268 6.9916 11.1037 6.65309 11.9292C6.34681 12.69 6.02441 13.4831 5.81485 14.3248C4.91213 17.9182 5.18617 24.7326 5.39573 29.7018C5.44409 30.8996 5.49245 31.9679 5.50857 32.842C5.50857 33.1171 5.52469 33.3923 5.54081 33.6675C5.58917 34.7196 5.62141 35.8041 5.41185 36.7752C5.26677 37.4713 4.70258 38.0054 4.41242 38.0054C4.28346 38.0054 4.13838 37.7464 4.05778 37.3741C3.97718 36.9695 3.9933 36.5163 4.00942 36.063C4.13838 33.2952 4.4769 25.1696 4.4769 22.0133C4.4769 20.249 4.33182 18.4685 4.02554 16.7366C3.97718 16.4776 3.94494 16.2024 3.89658 15.9434C3.70314 14.6809 3.5097 13.3698 2.71983 12.172C1.31739 9.93829 0.946636 7.85026 1.55919 5.37375Z" fill="#284135"/>
<path d="M51.5468 14.8914C51.6919 15.4418 51.837 15.9921 51.9821 16.5586C52.4495 18.2744 52.9331 20.0549 53.046 21.803C53.1911 23.9234 53.0782 26.1733 52.9654 28.3585C52.9331 28.8764 52.917 29.3944 52.8848 29.9124C52.8525 30.6731 52.8042 31.3691 52.7558 32.0328C52.643 33.5867 52.5463 35.0596 52.6752 36.921C52.7075 37.3904 52.7558 37.8922 52.9654 38.3454C53.4651 39.4623 54.255 39.6242 54.6902 39.6242C55.8186 39.6242 56.7697 38.5882 57.0115 37.6494C57.3822 36.225 57.2855 34.655 57.2049 33.1334C57.1727 32.6802 57.1566 32.227 57.1404 31.8062L56.947 24.8137C56.8664 22.2724 56.7858 19.6502 57.3822 17.2061C57.5918 16.332 57.9303 15.5551 58.2688 14.7296C58.5106 14.1792 58.7524 13.5965 58.962 12.9814C60.2032 9.32333 60.042 4.53218 59.9131 2.63837C59.8808 2.08804 59.8325 1.34347 59.4295 0.760758C59.1554 0.372285 58.7202 0.129491 58.2688 0.129491C57.8014 0.129491 57.4145 0.372287 57.2049 0.793132C57.0276 1.14923 57.0276 1.52152 57.0276 1.7805L56.8825 7.62377C56.8825 7.73707 56.8503 7.83419 56.818 7.88275C56.7858 7.818 56.7536 7.72089 56.7697 7.59139C57.0115 5.85946 56.818 3.30201 56.3344 1.63482C56.1249 0.89025 55.7058 0 54.9481 0C54.7708 0 54.4968 0.048559 54.2389 0.323727C53.8681 0.712199 53.8359 1.23016 53.8197 1.69957L53.6747 6.53928C53.6747 6.84682 53.6585 7.25148 53.5296 7.47809C53.5135 7.49428 53.4973 7.52665 53.4651 7.54284C53.4651 7.47809 53.4651 7.42953 53.449 7.39716L53.2394 2.606C53.2233 2.12041 53.1911 1.47296 52.8687 0.922621C52.6107 0.501776 52.1755 0.22661 51.708 0.22661C51.3534 0.22661 51.0149 0.388473 50.8053 0.696013C50.5313 1.0683 50.5152 1.50533 50.499 1.90999L50.4184 9.04817C50.4023 10.6506 50.8053 12.0912 51.1922 13.4832C51.2889 13.9688 51.4179 14.422 51.5468 14.8914ZM51.7403 1.97473C51.7403 1.90999 51.7403 1.76431 51.7564 1.65101C51.9015 1.90999 51.9176 2.34702 51.9337 2.70312L52.1433 7.49428C52.1594 7.78563 52.1755 8.22266 52.4495 8.56258C52.643 8.80537 52.917 8.93486 53.2394 8.93486C53.7553 8.93486 54.3356 8.59495 54.5935 8.14173C54.8837 7.63995 54.8998 7.04106 54.9159 6.60403L55.0449 1.8938C55.061 1.92617 55.0771 1.97473 55.0771 2.02329C55.5123 3.51244 55.6735 5.89183 55.464 7.44572C55.3995 7.93131 55.5285 8.4169 55.8186 8.75681C56.0443 9.03198 56.3506 9.19384 56.7052 9.21003H56.7858C57.1082 9.21003 57.4145 9.08054 57.6563 8.83774C57.9464 8.5302 58.1238 8.10936 58.1238 7.65614L58.2688 1.81287C58.2688 1.69957 58.2688 1.5377 58.285 1.44059C58.3011 1.45677 58.3333 1.47296 58.3494 1.50533C58.5429 1.79668 58.5912 2.33083 58.6074 2.73549C58.7363 4.54836 58.8814 9.14528 57.7208 12.593C57.5273 13.1595 57.3016 13.6775 57.076 14.244C56.7213 15.0695 56.3506 15.9435 56.1249 16.9147C55.4962 19.5369 55.5768 22.2562 55.6574 24.8784L55.8508 31.8709C55.867 32.3079 55.8831 32.7773 55.9153 33.2467C55.9959 34.6711 56.0926 36.1279 55.7702 37.3743C55.6413 37.8922 55.0932 38.394 54.6741 38.394C54.4484 38.394 54.2711 38.216 54.1099 37.876C53.9971 37.6171 53.9648 37.2448 53.9326 36.8725C53.8036 35.1082 53.9003 33.7323 54.0132 32.1623C54.0615 31.4986 54.1099 30.7864 54.1421 30.0095C54.1583 29.4915 54.1905 28.9735 54.2227 28.4556C54.3356 26.2381 54.4645 23.9396 54.3033 21.7383C54.1744 19.8606 53.6747 18.0154 53.1911 16.2511C53.046 15.7008 52.9009 15.1504 52.7558 14.6163C52.643 14.1307 52.4979 13.6613 52.3689 13.1919C51.9821 11.8322 51.6274 10.5373 51.6435 9.1291L51.7403 1.97473Z" fill="#284135"/>
</svg>
