<svg width="66" height="43" viewBox="0 0 66 43" fill="none" xmlns="http://www.w3.org/2000/svg">
<path fill-rule="evenodd" clip-rule="evenodd" d="M32.311 17.696C32.0697 17.4487 31.8065 17.2237 31.5247 17.0239L10.861 2.29418C9.13485 0.953163 6.82688 0.628498 4.79777 1.44127C2.76867 2.25404 1.32304 4.08223 1 6.24406V37.0842C1.32304 39.246 2.76867 41.0742 4.79777 41.887C6.82688 42.6997 9.13485 42.3751 10.861 41.0341L31.5292 24.9237C31.8111 24.7239 32.0743 24.4989 32.3156 24.2517M32.315 17.696V6.24405C32.639 4.08388 34.0838 2.25735 36.1114 1.44481C38.139 0.63227 40.4453 0.95553 42.1714 2.29418L62.8397 17.0239C64.1861 17.8862 65.0005 19.3749 65.0005 20.9738C65.0005 22.5727 64.1861 24.0614 62.8397 24.9237L42.1714 41.034C40.4453 42.3751 38.1373 42.6997 36.1082 41.887C34.0791 41.0742 32.6335 39.246 32.3104 37.0842V24.2516M32.3092 17.6957V24.2514Z" fill="#FFFEEB" fill-opacity="0.2"/>
<path d="M31.9531 18.0451C32.1459 18.2428 32.4625 18.2467 32.6602 18.0539C32.8578 17.861 32.8617 17.5445 32.6689 17.3468L31.9531 18.0451ZM31.5247 17.0239L31.2345 17.4311L31.2355 17.4318L31.5247 17.0239ZM10.861 2.29418L10.5542 2.68903C10.5596 2.69324 10.5652 2.69734 10.5707 2.70133L10.861 2.29418ZM4.79777 1.44127L4.98369 1.90542L4.98369 1.90542L4.79777 1.44127ZM1 6.24406L0.50549 6.17017C0.501835 6.19463 0.5 6.21933 0.5 6.24406L1 6.24406ZM1 37.0842H0.5C0.5 37.1089 0.501835 37.1336 0.50549 37.1581L1 37.0842ZM4.79777 41.887L4.98369 41.4228L4.98369 41.4228L4.79777 41.887ZM10.861 41.0341L11.1677 41.4289L11.1684 41.4284L10.861 41.0341ZM31.5292 24.9237L31.2401 24.5158C31.2339 24.5202 31.2278 24.5247 31.2219 24.5293L31.5292 24.9237ZM32.6734 24.6008C32.8663 24.4032 32.8624 24.0866 32.6648 23.8938C32.4671 23.7009 32.1506 23.7048 31.9577 23.9025L32.6734 24.6008ZM31.815 17.696C31.815 17.9721 32.0389 18.196 32.315 18.196C32.5912 18.196 32.815 17.9721 32.815 17.696H31.815ZM32.315 6.24405L31.8205 6.1699C31.8169 6.19445 31.815 6.21923 31.815 6.24405H32.315ZM36.1114 1.44481L36.2974 1.90893L36.2974 1.90893L36.1114 1.44481ZM42.1714 2.29418L41.865 2.68928C41.8703 2.69342 41.8757 2.69744 41.8812 2.70136L42.1714 2.29418ZM62.8397 17.0239L62.5495 17.4311C62.5562 17.4359 62.5631 17.4405 62.57 17.445L62.8397 17.0239ZM62.8397 24.9237L62.57 24.5026C62.5571 24.5109 62.5445 24.5198 62.5323 24.5293L62.8397 24.9237ZM42.1714 41.034L42.4782 41.4289L42.4788 41.4284L42.1714 41.034ZM36.1082 41.887L36.2941 41.4228L36.2941 41.4228L36.1082 41.887ZM32.3104 37.0842H31.8104C31.8104 37.1089 31.8123 37.1336 31.8159 37.1581L32.3104 37.0842ZM32.8104 24.2516C32.8104 23.9755 32.5866 23.7516 32.3104 23.7516C32.0343 23.7516 31.8104 23.9755 31.8104 24.2516H32.8104ZM32.8092 17.6957C32.8092 17.4196 32.5853 17.1957 32.3092 17.1957C32.033 17.1957 31.8092 17.4196 31.8092 17.6957H32.8092ZM31.8092 24.2514C31.8092 24.5276 32.033 24.7514 32.3092 24.7514C32.5853 24.7514 32.8092 24.5276 32.8092 24.2514H31.8092ZM32.6689 17.3468C32.4065 17.0779 32.1203 16.8333 31.8138 16.616L31.2355 17.4318C31.4928 17.6142 31.7329 17.8194 31.9531 18.0451L32.6689 17.3468ZM31.8149 16.6168L11.1512 1.88704L10.5707 2.70133L31.2345 17.4311L31.8149 16.6168ZM11.1677 1.89934C9.30134 0.449352 6.80583 0.0983062 4.61185 0.977119L4.98369 1.90542C6.84792 1.15869 8.96835 1.45697 10.5542 2.68903L11.1677 1.89934ZM4.61185 0.977119C2.41787 1.85593 0.854778 3.83268 0.50549 6.17017L1.49451 6.31795C1.7913 4.33179 3.11946 2.65215 4.98369 1.90542L4.61185 0.977119ZM0.5 6.24406V37.0842H1.5V6.24406H0.5ZM0.50549 37.1581C0.854778 39.4956 2.41787 41.4723 4.61185 42.3511L4.98369 41.4228C3.11946 40.6761 1.7913 38.9965 1.49451 37.0103L0.50549 37.1581ZM4.61185 42.3511C6.80583 43.2299 9.30134 42.8789 11.1677 41.4289L10.5542 40.6392C8.96835 41.8713 6.84792 42.1696 4.98369 41.4228L4.61185 42.3511ZM11.1684 41.4284L31.8366 25.318L31.2219 24.5293L10.5536 40.6397L11.1684 41.4284ZM31.8184 25.3316C32.1249 25.1143 32.4111 24.8697 32.6734 24.6008L31.9577 23.9025C31.7375 24.1281 31.4973 24.3334 31.2401 24.5158L31.8184 25.3316ZM32.815 17.696V6.24405H31.815V17.696H32.815ZM32.8095 6.31821C33.1071 4.33356 34.4346 2.65544 36.2974 1.90893L35.9254 0.980688C33.7331 1.85925 32.1708 3.8342 31.8205 6.1699L32.8095 6.31821ZM36.2974 1.90893C38.1602 1.16241 40.2792 1.45941 41.865 2.68928L42.4778 1.89908C40.6115 0.451654 38.1177 0.102127 35.9254 0.980688L36.2974 1.90893ZM41.8812 2.70136L62.5495 17.4311L63.1299 16.6167L42.4616 1.887L41.8812 2.70136ZM62.57 17.445C63.7729 18.2153 64.5005 19.5454 64.5005 20.9738H65.5005C65.5005 19.2045 64.5993 17.5571 63.1093 16.6029L62.57 17.445ZM64.5005 20.9738C64.5005 22.4022 63.7729 23.7323 62.57 24.5026L63.1093 25.3447C64.5993 24.3905 65.5005 22.7431 65.5005 20.9738H64.5005ZM62.5323 24.5293L41.864 40.6397L42.4788 41.4284L63.1471 25.318L62.5323 24.5293ZM41.8647 40.6392C40.2788 41.8713 38.1584 42.1695 36.2941 41.4228L35.9223 42.3511C38.1163 43.2299 40.6118 42.8789 42.4782 41.4289L41.8647 40.6392ZM36.2941 41.4228C34.4299 40.6761 33.1017 38.9964 32.8049 37.0103L31.8159 37.1581C32.1652 39.4956 33.7283 41.4723 35.9223 42.3511L36.2941 41.4228ZM32.8104 37.0842V24.2516H31.8104V37.0842H32.8104ZM31.8092 17.6957V24.2514H32.8092V17.6957H31.8092Z" fill="#FFFEEB"/>
</svg>
