<svg width="60" height="53" viewBox="0 0 60 53" fill="none" xmlns="http://www.w3.org/2000/svg">
<path d="M59.9989 12.5774L59.1408 12.6665C50.0236 13.5394 41.0494 15.2497 32.5043 17.7616C32.4328 17.7794 32.3255 17.7972 32.2004 17.815C31.5568 17.9397 31.0742 18.0466 30.7881 18.3851L30.6451 18.5633L30.6272 18.7949C30.6272 18.7949 30.5557 19.846 30.52 20.2913C30.2518 23.1774 30.1624 25.6181 30.0552 28.1834C30.0194 28.9851 30.0015 29.8224 29.9479 30.6954L29.9122 31.6396H29.93C29.8049 34.9888 29.7513 38.3559 29.7334 41.7051C29.3937 41.6339 29.0183 41.6339 28.625 41.7229C25.4966 42.4177 22.672 43.9142 20.4553 46.052C19.9369 46.5508 19.3827 47.1566 19.043 47.9582C18.6676 48.8668 18.6676 49.8823 19.0609 50.7374C19.776 52.3051 21.4922 52.9999 22.7972 52.9999H22.8329C24.2273 52.9821 25.3893 52.3229 26.3547 51.6816C27.9993 50.5771 29.1435 49.5081 29.9122 48.2967C30.5557 47.2991 30.949 46.1945 31.0742 45.0722H31.1278C31.1099 40.4759 31.1814 35.8618 31.3602 31.2655L52.3297 25.9387C54.1532 25.4755 56.352 24.9055 58.2291 24.567L57.4604 36.5566C57.085 36.4318 56.6559 36.4318 56.1733 36.5387C53.0448 37.2335 50.2203 38.73 48.0035 40.8678C47.4851 41.3666 46.9309 41.9724 46.5913 42.774C46.2159 43.6826 46.2159 44.6981 46.6091 45.5532C47.3242 47.1209 49.0404 47.8157 50.3454 47.8157H50.3812C51.7756 47.7979 52.9376 47.1387 53.9029 46.4974C55.5476 45.3929 56.6917 44.3239 57.4604 43.1125C58.1218 42.0792 58.5151 40.9391 58.6224 39.7989H58.6581L59.7129 23.2308C59.8201 21.6631 59.9095 20.0241 59.9453 18.3851C59.981 16.9065 59.9453 15.3922 59.8559 13.8957C59.8738 13.7354 59.8738 13.5929 59.8916 13.4325L59.9989 12.5774ZM28.7323 47.5485C28.053 48.5996 27.0519 49.5438 25.5681 50.5236C24.7458 51.0759 23.834 51.5925 22.8151 51.5925L22.7972 52.2873V51.5925C21.9212 51.5925 20.7771 51.0937 20.348 50.1495C20.1156 49.6507 20.1156 49.045 20.348 48.4927C20.5804 47.9226 21.0095 47.4772 21.4385 47.0675C23.4765 45.1078 26.0686 43.736 28.9468 43.0947C29.072 43.0591 29.1971 43.0591 29.3044 43.0591C29.358 43.0591 29.5367 43.0591 29.5904 43.1303C29.6261 43.166 29.644 43.3085 29.644 43.3441C29.8764 44.7693 29.5725 46.2658 28.7323 47.5485ZM51.9722 24.5848L31.4138 29.8046C31.5568 26.2772 31.7535 22.7676 32.0038 19.2937C32.1468 19.2581 32.3434 19.2224 32.4507 19.2046C32.6294 19.169 32.7903 19.1334 32.8976 19.1155C41.1031 16.7105 49.684 15.0359 58.4257 14.1451C58.3006 15.6416 58.2827 17.1202 58.247 18.5633C58.2112 20.0776 58.1933 21.6275 58.0503 23.1774C56.1196 23.5337 53.8314 24.1038 51.9722 24.5848ZM56.2805 42.3643C55.6012 43.4154 54.6001 44.3596 53.1163 45.3394C52.294 45.8917 51.3823 46.4083 50.3633 46.4083L50.3454 47.1031V46.4083C49.4694 46.4083 48.3253 45.9095 47.8963 44.9653C47.6639 44.4665 47.6639 43.8608 47.8963 43.3085C48.1287 42.7384 48.5577 42.293 48.9868 41.8833C51.0247 39.9236 53.6169 38.5518 56.4772 37.9105C56.6023 37.8749 56.7274 37.8749 56.8347 37.8749C56.8883 37.8749 57.0671 37.8749 57.1207 37.9461C57.1565 37.9818 57.1744 38.1243 57.1744 38.1599C57.4246 39.5851 57.1029 41.0816 56.2805 42.3643Z" fill="#284135"/>
<path d="M16.4336 31.4616C16.9163 30.7134 17.2023 29.8939 17.2917 29.0566H17.3274C17.3096 24.9234 17.4168 20.7725 17.5956 16.675C18.3822 15.9803 18.9006 15.6596 19.7944 15.5705C20.4559 15.4992 21.1531 15.5705 21.8682 15.6239C22.0648 15.6418 22.2615 15.6596 22.4581 15.6774C24.353 15.8199 25.8726 15.6952 27.2312 15.2676C28.4111 14.8935 29.4479 14.3056 30.5027 13.6821C31.9507 12.827 33.5954 11.7937 34.9719 10.4397C35.2937 10.1191 35.3473 9.63807 35.0792 9.26395C34.8289 8.88983 34.3462 8.76512 33.935 8.94327C32.2367 9.69151 30.6993 9.90529 29.3764 9.54899C28.6435 9.35302 27.9642 8.97891 27.2491 8.58697C26.7128 8.30193 26.1586 7.99907 25.5508 7.76748C22.6547 6.62731 19.7408 7.01924 17.5777 8.83639C17.1844 9.15706 16.8626 9.54899 16.4872 10.4041L16.5587 10.4397C16.1654 15.6952 15.9688 21.0576 15.933 26.4199C15.7364 26.4021 15.5219 26.4199 15.3074 26.4555C13.0549 26.9544 10.999 28.0411 9.39012 29.591C9.01471 29.9473 8.58566 30.4105 8.33539 31.0162C8.04936 31.711 8.04935 32.4949 8.35326 33.154C8.81806 34.1695 9.98006 34.8821 11.1957 34.8821H11.2314C12.2683 34.8643 13.1443 34.3833 13.8415 33.9201C15.0392 33.1362 15.8615 32.3345 16.4336 31.4616ZM18.4716 9.92311C20.2414 8.44445 22.619 8.12378 25.0145 9.0858C25.5329 9.28176 26.0335 9.5668 26.5519 9.83403C27.3206 10.2438 28.1072 10.6713 28.9832 10.9029C29.9306 11.1524 30.9675 11.188 32.0401 10.992C31.2714 11.5443 30.4669 12.0253 29.734 12.4529C28.7508 13.0408 27.7854 13.5752 26.7664 13.9137C25.5865 14.2878 24.2458 14.3947 22.5296 14.2522C22.333 14.2344 22.1542 14.2166 21.9575 14.1987C21.1888 14.1275 20.4201 14.0562 19.5978 14.1453C18.7933 14.2344 18.1855 14.466 17.6314 14.8045C17.7029 13.3971 17.7922 11.9718 17.8995 10.5823C18.1498 10.2081 18.3107 10.0478 18.4716 9.92311ZM11.2136 33.4925C10.6415 33.4925 9.89067 33.154 9.6404 32.584C9.49738 32.2811 9.49738 31.907 9.6404 31.5685C9.80129 31.1944 10.0873 30.8915 10.3733 30.6243C11.7856 29.2525 13.6091 28.2905 15.6113 27.8451C15.6828 27.8273 15.7543 27.8273 15.8258 27.8273C15.8437 27.8273 15.8437 27.8273 15.8615 27.8273C15.8615 27.8451 15.8615 27.8451 15.8615 27.8629C16.0403 28.825 15.8258 29.8404 15.2537 30.7134C14.7889 31.426 14.0917 32.0851 13.0549 32.7799C12.4828 33.1362 11.875 33.4747 11.2136 33.4925Z" fill="#284135"/>
<path d="M5.95898 41.0818C5.97686 41.5093 5.97686 42.4001 5.99474 43.273C6.01261 44.1816 6.01262 45.0902 6.03049 45.5356L7.44276 45.4999C7.42489 45.0545 7.42489 44.1638 7.40701 43.2552C7.38913 42.3645 7.38913 41.4737 7.37125 41.0461L5.95898 41.0818Z" fill="#284135"/>
<path d="M7.44111 52.8398C7.58412 51.379 7.54837 49.9181 7.33385 48.4751L5.93945 48.6711C6.1361 50.0072 6.17185 51.3611 6.04671 52.6973L7.44111 52.8398Z" fill="#284135"/>
<path d="M3.22924 46.6107L0 46.8142L0.0891473 48.2188L3.31839 48.0152L3.22924 46.6107Z" fill="#284135"/>
<path d="M9.90908 46.1767L9.62305 47.5485C10.2309 47.6732 10.8387 47.7267 11.4465 47.7267C12.1079 47.7267 12.7694 47.6554 13.4129 47.5129L13.109 46.1411C12.0901 46.3727 10.9638 46.3905 9.90908 46.1767Z" fill="#284135"/>
<path d="M51.6512 2.61882C51.6512 2.36941 51.6333 1.83496 51.6333 1.31832C51.6333 0.783866 51.6154 0.249412 51.6154 0L50.2031 0.0356297C50.2031 0.285042 50.221 0.819496 50.221 1.33613C50.221 1.87059 50.2389 2.40504 50.2389 2.65445L51.6512 2.61882Z" fill="#284135"/>
<path d="M50.2568 6.85885L51.6512 6.98355C51.7405 6.0928 51.7048 5.20204 51.5796 4.3291L50.2031 4.54288C50.3104 5.30893 50.3283 6.0928 50.2568 6.85885Z" fill="#284135"/>
<path d="M47.048 4.5219L48.957 4.40161L48.8679 2.99703L46.9589 3.11732L47.048 4.5219Z" fill="#284135"/>
<path d="M54.6733 2.72583C54.0834 2.85054 53.4756 2.85053 52.8856 2.74364L52.5996 4.11541C52.975 4.18667 53.3504 4.2223 53.7437 4.2223C54.1549 4.2223 54.5661 4.18667 54.9772 4.09759L54.6733 2.72583Z" fill="#284135"/>
</svg>
