<svg width="60" height="49" viewBox="0 0 60 49" fill="none" xmlns="http://www.w3.org/2000/svg">
<path d="M39.9999 9.09079C32.9599 8.73619 25.7919 8.72007 18.7519 9.02632C17.6639 9.07467 16.7999 9.96119 16.7519 11.0572C16.6399 14.3132 16.7199 17.1822 16.8159 19.9707C16.8959 22.7592 16.9919 25.6444 16.8799 28.9487C16.8479 30.1092 17.7119 31.0763 18.8319 31.1247C22.3199 31.2536 25.3119 31.302 28.2239 31.302C31.5839 31.302 35.1359 31.2214 39.7599 31.0441C39.8239 31.0441 39.9039 31.0441 39.9679 31.0441C40.4159 31.0441 41.0079 31.0441 41.4399 30.5444C41.8079 30.1092 41.8239 29.5451 41.8239 29.2066C41.8559 26.0635 41.8879 22.9688 41.9039 19.8901L41.9839 11.2184C41.9999 10.074 41.1199 9.13915 39.9999 9.09079ZM40.6399 19.874C40.6079 22.9688 40.5919 26.0474 40.5599 29.1905C40.5599 29.3355 40.5599 29.6257 40.4799 29.7224C40.4319 29.7868 40.1279 29.7868 39.9519 29.7868C39.8719 29.7868 39.7759 29.7868 39.6959 29.7868C35.0879 29.9641 31.5519 30.0447 28.2079 30.0447C25.2959 30.0447 22.3359 29.9803 18.8639 29.8674C18.4479 29.8513 18.1119 29.4645 18.1279 28.997C18.2399 25.6605 18.1599 22.7592 18.0639 19.9385C17.9839 17.1822 17.8879 14.3293 17.9999 11.1056C18.0159 10.6704 18.3679 10.3158 18.7839 10.2997C22.0959 10.1546 25.4399 10.074 28.7519 10.074C32.4639 10.074 36.2239 10.1707 39.9199 10.348C40.3679 10.3641 40.7039 10.7349 40.7039 11.1862L40.6399 19.874Z" fill="#284135"/>
<path d="M10.976 40.4895L11.184 41.0375L11.744 40.8763C13.408 40.3766 15.152 39.8447 17.04 39.2484C19.264 39.3128 21.568 39.3451 24.064 39.3612C28.912 41.5855 33.488 43.552 38.336 45.6151C40.832 46.6789 43.36 47.775 46 48.9194C46.144 48.9839 46.304 49 46.448 49C46.56 49 46.656 48.9839 46.784 48.9516C47.248 48.7905 47.424 48.3714 47.52 48.1941C48.416 46.1793 51.616 38.6197 54.432 31.9628C56.96 25.9668 59.36 20.3092 59.744 19.4711L60 18.923L59.456 18.649C54.24 15.9734 49.424 13.7168 44.96 11.6697C44.944 9.09079 44.944 7.22105 44.944 6.75362L44.96 6.14112L44.352 6.10888C39.904 5.83487 35.744 5.6898 31.6 5.59309C30.8 3.2398 30.08 1.07994 29.92 0.580264L29.744 0L29.152 0.161184C22.064 2.06316 15.856 4.04572 9.28 6.15724C6.48 7.05987 3.568 7.97862 0.591999 8.91349L0 9.09079L0.176 9.68717C3.088 19.4711 5.616 26.2086 8.8 34.7352C9.504 36.5405 10.224 38.4585 10.976 40.4895ZM14.112 30.3026C13.568 30.4638 13.024 30.625 12.448 30.8023C12.048 30.9151 11.6 30.6411 11.488 30.222C10.544 27.0145 9.552 24.2905 8.592 21.647C7.648 19.052 6.672 16.3763 5.76 13.2977C5.632 12.8786 5.856 12.4273 6.256 12.2822C8.768 11.3151 11.296 10.3803 13.776 9.52599C13.76 10.4609 13.744 11.3635 13.744 12.25C13.744 12.2822 13.744 12.3145 13.744 12.3467C13.744 12.9753 13.744 13.6039 13.744 14.2164C13.744 14.3132 13.744 14.426 13.744 14.5227C13.744 14.6678 13.744 14.8128 13.744 14.9579C13.744 14.974 13.744 14.9901 13.744 15.0063C13.744 15.1352 13.744 15.248 13.744 15.377C13.744 15.6349 13.744 15.8928 13.744 16.1507C13.744 16.3602 13.744 16.5697 13.744 16.7793C13.744 17.0049 13.744 17.2467 13.744 17.4724C13.744 17.5691 13.744 17.6658 13.744 17.7625C13.744 17.7786 13.744 17.7947 13.744 17.8109C13.744 17.9559 13.744 18.0849 13.744 18.2299C13.744 18.6974 13.76 19.1648 13.76 19.6322C13.76 19.6484 13.76 19.6645 13.76 19.6645C13.76 19.7934 13.76 19.9224 13.76 20.0513C13.76 20.1158 13.76 20.1803 13.76 20.2286C13.776 21.0184 13.792 21.8082 13.808 22.598C13.808 22.6141 13.808 22.6303 13.808 22.6464C13.824 23.4201 13.856 24.2099 13.872 24.9997C13.872 25.0641 13.872 25.1447 13.872 25.2092C13.888 25.9507 13.92 26.7082 13.952 27.4658C13.952 27.6109 13.968 27.7398 13.968 27.8849C14 28.578 14.016 29.2872 14.048 29.9964C14.096 30.077 14.096 30.1898 14.112 30.3026ZM44.992 16.6503C47.936 17.972 50.864 19.3582 53.712 20.7766C54.112 20.9701 54.272 21.4536 54.096 21.8727C52.56 25.3382 51.072 28.7069 49.552 32.1079L46.8 38.3135C46.752 38.4263 46.624 38.7003 46.528 38.7648C46.528 38.7648 46.528 38.7648 46.496 38.7648C46.384 38.7648 46.192 38.6842 46.016 38.6036C45.936 38.5714 45.856 38.5391 45.776 38.5069C45.536 38.4102 45.312 38.3296 45.072 38.2329V38.2168V38.2007C45.072 38.1845 45.072 38.1684 45.072 38.1523C45.072 38.1039 45.072 38.0395 45.088 38.0072C45.088 37.8783 45.088 37.7171 45.088 37.5398C45.088 37.1852 45.088 36.75 45.088 36.2503C45.088 32.9783 45.04 26.7727 44.992 20.7444V20.6638V16.6503ZM58.352 19.4872C57.6 21.2118 55.568 26.0151 53.264 31.4632C50.448 38.1201 47.264 45.6635 46.368 47.6783C46.368 47.6783 46.368 47.6944 46.352 47.6944C43.776 46.5661 41.28 45.5023 38.816 44.4546C34.848 42.7622 31.056 41.1342 27.152 39.3773C30.032 39.3773 32.88 39.3451 35.76 39.3289C38.448 39.3128 41.168 39.2806 44 39.2806C44.016 39.2806 44.048 39.2806 44.064 39.2645C44.112 39.2645 44.16 39.2484 44.208 39.2484C44.576 39.3934 44.944 39.5385 45.328 39.6836C45.392 39.7158 45.456 39.7319 45.52 39.7641C45.808 39.8931 46.128 40.022 46.496 40.022C46.704 40.022 46.896 39.9737 47.072 39.8931C47.6 39.6352 47.824 39.1033 47.952 38.8132L50.704 32.6076C52.208 29.2066 53.712 25.8217 55.248 22.3724C55.696 21.3247 55.264 20.1319 54.272 19.6322C51.248 18.1171 48.128 16.6503 44.992 15.2641L44.976 13.0559C49.104 14.9418 53.568 17.0372 58.352 19.4872ZM43.696 11.0734L43.712 14.3615C43.728 16.0701 43.744 17.9398 43.76 19.9062C43.824 27.3207 43.872 35.7345 43.856 37.975V37.9911C41.008 37.9911 38.24 38.0234 35.52 38.0395C32.992 38.0556 30.512 38.0717 28 38.0878C26.976 38.0878 25.952 38.0878 24.912 38.0878C21.552 38.0717 18.56 38.0234 15.664 37.9266C15.6 35.928 15.52 34.0421 15.456 32.2207C15.36 29.5934 15.264 27.1273 15.184 24.6934C15.184 24.4516 15.168 24.2099 15.168 23.9842C15.168 23.9359 15.168 23.8714 15.168 23.823C15.024 18.9553 14.96 14.2003 15.088 8.65559C15.104 7.97862 15.12 7.28553 15.136 6.57632C16.528 6.60855 17.888 6.62467 19.232 6.65691C19.44 6.65691 19.664 6.65691 19.872 6.67303C20.736 6.68915 21.616 6.70526 22.464 6.70526L27.984 6.78586C29.04 6.80197 30.096 6.81809 31.152 6.85033L32.048 6.86645C35.824 6.94704 39.648 7.0921 43.68 7.33388C43.68 8.07533 43.68 9.39704 43.696 11.0734ZM30.272 5.54474C29.664 5.52862 29.04 5.5125 28.432 5.5125C28.016 4.60987 26.992 4.09408 25.984 4.36809C24.704 4.7227 23.536 5.0773 22.384 5.41579C22.08 5.41579 21.776 5.39967 21.472 5.39967C19.856 5.38355 18.224 5.35132 16.56 5.31908C16.384 5.31908 16.208 5.31908 16.032 5.30296C20.208 3.99737 24.384 2.72401 28.912 1.51513C29.168 2.30493 29.648 3.70724 30.272 5.54474ZM9.664 7.33388C11.072 6.88257 12.464 6.43125 13.856 5.99605C13.84 6.7375 13.808 7.46283 13.792 8.17204C11.152 9.07467 8.464 10.0418 5.792 11.0895C4.784 11.4763 4.24 12.6046 4.544 13.6523C5.456 16.7793 6.448 19.4711 7.392 22.0822C8.352 24.7095 9.344 27.4174 10.272 30.5766C10.528 31.4793 11.344 32.0918 12.256 32.0918C12.448 32.0918 12.624 32.0595 12.8 32.0112C13.264 31.8822 13.712 31.7372 14.16 31.6082C14.192 32.5431 14.24 33.4941 14.272 34.4773C14.272 34.5257 14.272 34.574 14.272 34.6224C14.32 35.8957 14.368 37.2013 14.416 38.5714V38.7326C13.568 38.9905 12.736 39.2484 11.936 39.4901C11.264 37.6688 10.608 35.928 9.984 34.2678C6.864 25.9345 4.384 19.326 1.568 9.91283C4.352 9.04243 7.056 8.17204 9.664 7.33388Z" fill="#284135"/>
</svg>
