<svg width="60" height="51" viewBox="0 0 60 51" fill="none" xmlns="http://www.w3.org/2000/svg">
<path d="M6.47706 47.6734C9.82231 49.8546 13.6343 50.9374 17.5241 50.9374C21.4762 50.9374 25.4905 49.8075 29.1625 47.5635C30.6406 48.7561 32.3521 49.6192 34.2659 50.09C36.4909 50.6549 39.1827 51.0001 41.8589 51.0001C45.2819 51.0001 48.6894 50.4195 51.1322 48.9758C59.1919 44.2054 62.4593 31.4318 57.9783 22.1734C55.6288 17.3401 50.9144 13.9506 45.3441 12.962C45.3753 12.9306 45.4219 12.8992 45.453 12.8678L45.4842 12.8835L45.5153 12.8208C45.7487 12.6324 45.9976 12.4441 46.1843 12.2715C47.5069 11.1574 48.1604 10.4512 49.125 9.39983L49.7474 8.72507L49.3118 8.30137C48.8761 7.89337 48.6738 7.57953 48.4093 7.20291C48.2693 6.98322 48.1137 6.74783 47.8959 6.48106L47.7091 6.24568L39.8673 6.07306C39.5561 6.07306 39.0893 6.05737 38.7003 6.05737H37.7512L37.5801 6.37122C37.5023 6.51245 36.8177 7.76783 36.6154 8.4426L36.522 8.77214L36.7399 9.02322C37.44 9.83922 38.2491 10.6238 39.0271 11.3771C39.4783 11.8164 39.9295 12.2558 40.3496 12.6952C39.2449 12.7737 38.1558 12.9463 37.1133 13.2131C34.3593 13.9349 31.9009 15.2374 29.7849 17.0891C28.6802 16.2103 27.4665 15.4414 26.1907 14.8137C19.6869 11.6752 12.094 12.5854 6.83492 17.1361C1.59145 21.6712 -0.960272 29.5174 0.331148 37.1125C0.782367 39.89 2.1827 44.8958 6.47706 47.6734ZM42.8391 12.6952C42.5435 12.6795 42.2634 12.6795 41.9833 12.6795C41.8589 12.5383 41.7033 12.3971 41.5788 12.2401C41.9678 11.5497 42.4034 10.8906 42.9013 10.2943C43.3059 10.9691 43.7726 11.6124 44.2705 12.2244C44.0372 12.4128 43.8349 12.5697 43.6949 12.6638C43.5081 12.6638 43.2281 12.6795 42.9013 12.6795C42.8858 12.6952 42.8547 12.6952 42.8391 12.6952ZM41.6099 8.52107C41.361 8.12876 41.0965 7.75214 40.8319 7.35983L45.1107 7.45399C44.8151 7.90906 44.4884 8.36414 44.1772 8.70937C43.3526 8.72506 42.5435 8.72506 41.7188 8.70937L41.6099 8.52107ZM45.3908 11.33C45.3441 11.3771 45.2819 11.4241 45.2197 11.4712C44.8151 10.9848 44.4573 10.4669 44.115 9.93337C45.0796 9.91768 46.0443 9.90199 47.009 9.85491C46.5422 10.3257 46.0754 10.7651 45.3908 11.33ZM47.3668 7.90906C47.5224 8.12876 47.678 8.36414 47.8647 8.59953C47.1646 8.63091 46.4488 8.6623 45.7487 8.67799C46.0287 8.28568 46.3088 7.86199 46.5266 7.46968L47.0712 7.48537C47.1957 7.6266 47.289 7.76783 47.3668 7.90906ZM38.4669 7.32845H38.6848C38.887 7.32845 39.1204 7.32845 39.3383 7.32845C39.6494 7.78353 39.9451 8.22291 40.2407 8.67799C39.4783 8.6623 38.7159 8.63091 37.9535 8.58383C37.9379 8.56814 37.9224 8.55245 37.9068 8.53676C38.0468 8.16014 38.2958 7.67368 38.4669 7.32845ZM39.8673 10.5297C39.6494 10.31 39.4161 10.0903 39.1982 9.8706C40.0073 9.90199 40.8164 9.91768 41.6255 9.93337C41.2832 10.3728 40.972 10.8435 40.6764 11.33C40.4118 11.0475 40.1318 10.7965 39.8673 10.5297ZM37.4245 14.4528C38.8404 14.0761 40.3496 13.9035 41.89 13.9035C42.1078 13.9192 42.3412 13.9192 42.6524 13.9192C42.7302 13.9192 42.7924 13.9192 42.8547 13.9192C49.0161 14.2488 54.3841 17.6069 56.858 22.7226C61.0746 31.4318 58.0405 43.4521 50.4943 47.9245C46.6044 50.2312 39.525 50.1528 34.5304 48.8974C30.5784 47.8931 27.5599 45.1312 25.8017 40.91C24.6347 38.1011 24.0746 35.0097 24.1991 31.9654C24.3391 28.4189 25.3505 25.0294 27.1398 22.142C27.4354 22.4401 27.7155 22.7383 27.98 23.0521C28.4001 23.5543 28.7579 24.0878 29.1003 24.6528C28.509 25.8768 28.0578 27.1792 27.7777 28.5758C27.7466 28.7014 27.731 28.8269 27.6999 28.9681C26.9531 33.1894 27.6688 37.3792 29.6759 40.4863C32.4922 44.8488 37.3622 46.3709 41.5321 46.3709C42.1545 46.3709 42.7613 46.3395 43.337 46.2768C48.6116 45.6961 52.8904 42.0555 54.493 36.7672C56.1734 31.2121 55.4888 23.8368 50.1675 19.9294C46.1843 16.9949 41.4854 17.4343 37.4089 18.0934C35.6818 18.3601 34.1103 19.0506 32.7256 20.1177C32.1188 19.3488 31.4497 18.6269 30.7184 17.9678C32.6789 16.2888 34.9194 15.1118 37.4245 14.4528ZM24.6814 41.3808C24.9459 42.0085 25.226 42.5891 25.5372 43.154C20.3248 46.1983 12.2651 46.1355 8.09523 41.114C5.91693 38.4934 4.98337 34.8998 5.51239 31.0081C6.10364 26.5986 8.48421 22.346 11.6116 20.1648C15.8749 17.1832 22.0052 17.7795 26.2529 21.2946C24.2769 24.4017 23.1566 28.058 23.0166 31.9026C22.861 35.1352 23.4522 38.4149 24.6814 41.3808ZM28.9135 29.1721C28.9291 29.0466 28.9602 28.9368 28.9758 28.8112C29.1625 27.8383 29.4581 26.9125 29.816 26.018C31.6053 29.9411 31.7142 34.7429 29.956 38.4306C28.7113 35.7786 28.3223 32.4989 28.9135 29.1721ZM34.1415 22.1891C33.9236 21.8125 33.7058 21.4515 33.4568 21.0906C34.686 20.1491 36.0864 19.5371 37.6112 19.3017C41.4543 18.6897 45.8576 18.266 49.4673 20.918C54.3063 24.4645 54.8975 31.2435 53.3416 36.3906C51.879 41.2081 48.0048 44.5192 43.2281 45.0371C40.3963 45.3509 36.9266 44.8958 34.0948 43.1226C35.7129 40.7531 36.6154 37.5048 36.7243 33.6758C36.8021 30.6472 36.4287 26.1906 34.1415 22.1891ZM7.62845 18.1248C12.5296 13.8878 19.5935 13.0405 25.6617 15.9749C28.8202 17.4971 31.4497 19.9294 33.099 22.8011C35.2462 26.5515 35.5885 30.7728 35.5107 33.6445C35.4018 37.2223 34.5771 40.2352 33.099 42.4165C32.2121 41.7103 31.403 40.8472 30.7184 39.8115C30.7029 39.7801 30.6873 39.7645 30.6717 39.7331C33.628 34.5232 32.9123 27.0851 28.9291 22.2518C24.3858 16.7438 16.295 15.3472 10.8959 19.1448C7.4573 21.5614 4.92113 26.0337 4.2832 30.8512C3.72307 35.0881 4.73442 39.0112 7.14611 41.9143C9.76007 45.0528 13.7277 46.4337 17.7109 46.4337C20.7138 46.4337 23.7323 45.6334 26.1595 44.2211C26.7664 45.1469 27.4354 45.9786 28.1823 46.7161C21.3673 50.702 13.3854 50.7177 7.13055 46.6534C3.24073 44.1269 1.94931 39.5134 1.51365 36.9869C0.315588 29.7841 2.71172 22.3931 7.62845 18.1248Z" fill="#284135"/>
<path d="M43.5085 3.89156C43.6953 2.76171 43.7575 1.61617 43.6953 0.486328L42.4661 0.549098C42.5283 1.60048 42.4661 2.65187 42.2949 3.67187L43.5085 3.89156Z" fill="#284135"/>
<path d="M49.3579 0L47.1641 4.03292L48.2065 4.67631L48.5022 4.22123L48.471 4.20554L50.4315 0.596308L49.3579 0Z" fill="#284135"/>
<path d="M38.5222 4.06956L36.4727 0.103516L35.3826 0.676501L37.4322 4.64254L38.5222 4.06956Z" fill="#284135"/>
</svg>
