<svg width="36" height="60" viewBox="0 0 36 60" fill="none" xmlns="http://www.w3.org/2000/svg">
<path d="M0.51161 35.4772C0.458508 37.5044 0.387702 39.6028 0.299198 41.719C0.122189 46.4493 -0.054818 51.3397 0.0159855 56.1233C0.0513872 58.2039 1.69757 59.8222 3.82167 59.8222C5.48555 59.8044 7.16714 59.8577 8.81332 59.9111C10.2117 59.9644 11.6455 60 13.0792 60C14.6546 60 16.053 59.9467 17.3097 59.8044C17.8054 59.7688 18.8497 59.6621 19.3807 58.8441C19.6817 58.3817 19.6994 57.8483 19.7171 57.4748C19.9295 51.9443 20.1242 46.1114 20.2835 40.1363C20.4251 34.9793 19.8587 30.7113 18.5311 27.1191C18.3364 26.5857 18.1063 26.0344 17.8408 25.4831C17.469 24.6651 17.0619 23.8826 16.6548 23.118C15.3626 20.6106 14.1413 18.2454 14.2298 15.2756L14.4776 7.0243C14.6723 7.0243 14.8847 7.04209 15.0971 7.04209L15.8406 7.07765L15.8052 6.33077C15.7344 4.28572 15.7521 2.98755 15.8229 1.03142L15.8583 0.23118L15.0617 0.302311C14.6369 0.337877 14.2121 0.355661 13.7696 0.355661C12.796 0.355661 11.911 0.266746 11.0436 0.17783C10.2117 0.0889152 9.32664 0 8.4239 0C7.45035 0 6.5122 0.106699 5.57406 0.320095L5.02533 0.444576L5.20234 7.131L5.91037 7.09543C6.22899 7.07765 6.54761 7.05987 6.83082 7.04209L6.77772 13.7996C6.76002 15.7202 6.76002 17.8897 6.12278 19.8281C5.60946 21.4108 4.70671 22.8157 3.76857 24.2916C2.86582 25.7143 1.90998 27.1903 1.34355 28.8263C0.688618 30.9069 0.564713 33.0765 0.51161 35.4772ZM18.2125 58.0972C18.0709 58.3284 17.5752 58.3995 17.1681 58.4351C15.9468 58.5596 14.6015 58.6129 13.0792 58.6129C11.6809 58.6129 10.2471 58.5596 8.86642 58.524C7.46805 58.4707 6.01658 58.4351 4.60051 58.4351C4.335 58.4351 4.06948 58.4351 3.78627 58.4351C2.49411 58.4351 1.44976 57.4037 1.43205 56.1055C1.41435 54.4695 1.41435 52.8334 1.44975 51.1796C7.13173 51.1618 12.8845 51.1796 18.5665 51.2507C18.4957 53.3491 18.4249 55.412 18.3364 57.4392C18.3187 57.6526 18.301 57.9727 18.2125 58.0972ZM18.9028 40.1186C18.8143 43.4084 18.7081 46.6627 18.6019 49.8459C12.9022 49.7925 7.14943 49.7747 1.44975 49.7747C1.50286 47.0895 1.59136 44.4043 1.69757 41.7546C1.76837 39.6384 1.85688 37.54 1.90998 35.495C1.90998 35.4238 1.90998 35.3527 1.90998 35.2816C3.64466 35.3527 5.39705 35.495 7.11403 35.6372C9.41514 35.8328 11.7694 36.0462 14.1236 36.0462C15.699 36.0462 17.2566 35.9395 18.8143 35.7084C18.9028 37.1132 18.9382 38.5714 18.9028 40.1186ZM6.60071 5.65501L6.4945 1.56491C7.92827 1.29816 9.41515 1.40486 10.9374 1.56491C11.8402 1.65382 12.7606 1.76052 13.805 1.76052C14.0174 1.76052 14.2298 1.76052 14.4422 1.74274C14.3891 3.09425 14.3891 4.1968 14.4245 5.58388L13.8404 5.56609C13.0969 5.54831 12.3535 5.54831 11.6101 5.54831C11.5747 5.54831 11.5216 5.54831 11.4861 5.54831C11.1498 5.54831 10.8135 5.54831 10.4595 5.54831C9.62756 5.54831 8.81332 5.56609 7.89287 5.60166C7.78667 5.60166 7.68046 5.60166 7.55655 5.60166L6.88392 5.61944V5.63723C6.79542 5.65501 6.70691 5.65501 6.60071 5.65501ZM5.00763 25.0563C5.96348 23.5625 6.95472 22.0154 7.52115 20.2727C8.21149 18.1209 8.22919 15.8447 8.24689 13.8174L8.29999 6.98874C8.35309 6.98874 8.40619 6.98874 8.4416 6.98874C9.11423 6.97095 9.78686 6.95317 10.4418 6.95317C10.5303 6.95317 10.6365 6.95317 10.725 6.95317C11.4684 6.95317 12.2119 6.97095 13.0969 6.98874L12.8491 15.2579C12.7429 18.5833 14.1236 21.233 15.4334 23.7759C15.8229 24.5228 16.23 25.3053 16.584 26.0877C16.8318 26.6034 17.0442 27.1191 17.2212 27.6171C17.947 29.6088 18.4249 31.8317 18.6904 34.3213C14.9201 34.9259 11.0082 34.588 7.22024 34.2679C5.48555 34.1257 3.71547 33.9656 1.94538 33.9123C2.03388 32.2584 2.21089 30.7291 2.70652 29.3065C3.25524 27.8127 4.10489 26.479 5.00763 25.0563Z" fill="#284135"/>
<path d="M26.2855 23.4202C26.2324 24.8429 26.2678 27.1191 26.3032 29.3242C26.3386 31.5115 26.374 33.77 26.3209 35.157C26.2855 35.8861 26.2501 36.6508 26.3917 37.4333C26.551 38.358 26.9227 39.2116 27.3121 40.0118C28.1972 41.8257 28.9229 43.0527 29.9142 44.4398C29.9142 45.8091 29.8434 46.9472 29.7549 48.2276C29.6664 49.5791 29.5602 51.0907 29.5602 53.1001C28.8698 53.8115 28.2857 54.4694 27.6839 55.163C27.3122 55.5898 26.9227 56.0343 26.5156 56.4789C26.1793 56.8524 25.5421 57.5459 25.6129 58.435C25.6837 59.3242 26.7811 59.3242 27.2059 59.3242C27.8078 59.3242 28.5158 59.2531 28.9229 59.1997C29.0468 59.1819 29.1353 59.1819 29.1707 59.1819C29.7195 59.1642 30.2505 59.1997 30.7815 59.2353L31.1709 59.2531C31.2594 59.2531 31.401 59.2708 31.5427 59.2886C31.8613 59.3242 32.2684 59.3598 32.6401 59.3598C33.2065 59.3598 33.596 59.2709 33.8792 59.0575C34.0916 58.8974 34.2332 58.6662 34.2686 58.4173C34.3217 57.9371 34.0208 57.5637 33.7907 57.2791C33.7553 57.2258 33.7199 57.1902 33.6845 57.1369C33.596 57.0124 33.4897 56.8879 33.3835 56.7634C33.2773 56.639 33.1711 56.4967 33.0649 56.3544C32.7463 55.9276 32.4985 55.4653 32.2153 55.0029C31.8613 54.3805 31.4719 53.7225 30.9585 53.1179C30.9585 51.144 31.0647 49.7036 31.1532 48.2987C31.2417 47.0361 31.3125 45.8447 31.3125 44.4042C31.6489 43.6929 32.0206 43.0527 32.4277 42.377C32.8525 41.6656 33.295 40.9365 33.6668 40.1007C34.2863 38.6959 34.3748 37.2732 34.4633 35.8861C34.4987 35.406 34.5164 34.9259 34.5695 34.4279C34.8173 32.1695 35.1359 25.8743 34.9412 23.6336L34.9058 23.278L34.6049 23.1001C34.4102 22.9757 33.8615 22.78 32.4277 22.78C32.2153 22.78 32.0029 22.78 31.702 22.7978C31.525 22.7978 31.0824 22.78 30.5514 22.78C29.6841 22.7623 28.5512 22.7267 27.7901 22.7267C26.9581 22.7089 26.3209 22.7089 26.2855 23.4202ZM27.737 32.3295L27.7724 32.3118C27.8078 32.4362 27.7724 32.5252 27.737 32.5785C27.737 32.5074 27.737 32.4184 27.737 32.3295ZM31.9144 57.1902C32.0383 57.3503 32.1622 57.5103 32.2861 57.6704C32.3746 57.7593 32.4454 57.866 32.5162 57.9727C32.233 57.9727 31.9144 57.9371 31.6666 57.9016C31.4896 57.8838 31.3479 57.866 31.2417 57.866L30.8523 57.8482C30.3921 57.8126 29.9319 57.7949 29.4717 57.7949C29.3478 57.7949 29.2238 57.7949 29.0999 57.7949C29.0468 57.7949 28.9229 57.8126 28.7459 57.8304C28.3565 57.866 27.7016 57.9371 27.1705 57.9371C27.1528 57.9371 27.1351 57.9371 27.1174 57.9371C27.2236 57.7771 27.3653 57.5992 27.5246 57.4392C27.9494 56.9768 28.3388 56.5323 28.7105 56.1055C29.2061 55.5364 29.6664 55.0029 30.1974 54.4516C30.4806 54.8607 30.7284 55.2874 30.9939 55.732C31.2594 56.1944 31.5604 56.6923 31.9144 57.1902ZM33.0472 35.7972C32.9587 37.1132 32.8879 38.358 32.3746 39.5139C32.0383 40.2786 31.6312 40.9365 31.224 41.6479C30.9939 42.0391 30.7638 42.4303 30.5337 42.8571C29.8434 41.8257 29.2592 40.7765 28.5689 39.3894C28.1795 38.5892 27.8963 37.9134 27.7724 37.2021C27.6662 36.5797 27.7016 35.8861 27.7193 35.2282C27.7547 34.5346 27.7547 33.6277 27.7547 32.6318C27.7724 32.6141 27.8609 32.5607 27.9848 32.5251C28.3919 32.4007 28.8875 32.2762 29.1884 32.4362C29.3123 32.5074 29.4363 32.6318 29.5779 32.7741C29.8788 33.0764 30.2505 33.4321 30.8346 33.5032C30.8877 33.5032 30.9408 33.521 31.0116 33.521C31.4719 33.521 31.9321 33.3076 32.3746 32.8986C32.4631 32.8275 32.5339 32.7385 32.6047 32.6674C32.764 32.5074 32.9056 32.3651 33.0472 32.2762C33.1357 32.2228 33.2419 32.2051 33.3658 32.1695C33.3127 33.0409 33.2419 33.7877 33.1888 34.3035C33.1003 34.7836 33.0649 35.2993 33.0472 35.7972ZM27.6485 24.096C27.6839 24.096 27.737 24.096 27.7724 24.096C28.5158 24.096 29.631 24.1316 30.4983 24.1493C31.047 24.1671 31.4896 24.1671 31.6843 24.1671H31.7728C32.6755 24.1316 33.2419 24.1849 33.5429 24.2205C33.6137 25.732 33.5252 28.3995 33.4012 30.7113C33.0649 30.7468 32.6932 30.818 32.3392 31.0136C32.0206 31.1914 31.7905 31.4226 31.5781 31.636C31.5073 31.7071 31.4542 31.7605 31.3833 31.8316C31.1709 32.0272 31.0293 32.0806 30.9585 32.0806C30.8523 32.0628 30.6753 31.9027 30.516 31.7427C30.3213 31.5471 30.1089 31.3337 29.8257 31.1914C29.1353 30.8002 28.3388 30.9247 27.7016 31.1203C27.7016 30.5334 27.6839 29.911 27.6662 29.3064C27.6662 27.4214 27.6308 25.4831 27.6485 24.096Z" fill="#284135"/>
</svg>
